<?xml version="1.0" encoding="UTF-8"?>
<svg version="1.1" xmlns="http://www.w3.org/2000/svg" width="640" height="110">
<path d="M0 0 C10.42547396 -0.84721685 21.01239654 1.39967532 29.16015625 8.23828125 C39.46344825 18.10406615 44.53107177 26.91505774 45.140625 41.32421875 C44.88139828 52.89869169 40.57887429 62.59644304 32.6875 71.0625 C24.48883198 78.55126638 14.24398964 82.54205534 3.09765625 82.1875 C-8.00519198 81.19506664 -15.90263738 77.59127746 -24 70 C-23.75 67.6875 -23.75 67.6875 -23 65 C-21.67151309 63.99357052 -20.33849671 62.99307821 -19 62 C-19 60.68 -19 59.36 -19 58 C-26.72618715 63.36102782 -33.85580866 69.18667338 -40.93359375 75.36328125 C-47.49958401 81.03002496 -47.49958401 81.03002496 -51.125 80.8125 C-54 80 -54 80 -56 78 C-56.4375 74.6875 -56.4375 74.6875 -56 71 C-53.81640625 68.5859375 -53.81640625 68.5859375 -51 66 C-50.1028125 65.16339844 -49.205625 64.32679687 -48.28125 63.46484375 C-47.3634375 62.63082031 -46.445625 61.79679687 -45.5 60.9375 C-44.5821875 60.10089844 -43.664375 59.26429687 -42.71875 58.40234375 C-40 56 -40 56 -37.16015625 54.2890625 C-34.67370292 51.65423131 -34.68311481 51.09500366 -34.65234375 47.62109375 C-34.72953372 45.8923391 -34.82549677 44.16434863 -34.9375 42.4375 C-35.18969545 34.48336954 -34.86970016 28.14869843 -31 21 C-30.57589844 20.20464844 -30.15179688 19.40929687 -29.71484375 18.58984375 C-24.6692014 10.17107002 -16.50041742 3.71965528 -7 1 C-3.9375 1.25 -3.9375 1.25 -2 2 C-2 3.65 -2 5.3 -2 7 C-1.34 4.69 -0.68 2.38 0 0 Z M-6 24 C-6.7425 24.433125 -7.485 24.86625 -8.25 25.3125 C-11.45901321 28.40690559 -11.88693765 32.07165877 -12.140625 36.3984375 C-11.95055299 42.57577787 -10.1654823 46.06981902 -5.82421875 50.4375 C-1.13216969 54.4563857 3.08666767 54.20045194 9 54 C9 53.34 9 52.68 9 52 C7.91332031 51.90525391 7.91332031 51.90525391 6.8046875 51.80859375 C1.85850162 51.18207687 -2.09770235 50.67228574 -5.625 46.9375 C-8.51474226 42.88850067 -9.50870904 38.94295615 -9 34 C-7.76671059 29.87708482 -6.03561514 26.91725912 -2.8125 24.0625 C1.06901717 22.59614907 4.87870142 22.26038706 9 22 C9 21.34 9 20.68 9 20 C2.68650484 19.49492039 -0.89889226 19.84793556 -6 24 Z M-1 37 C-1 37.66 -1 38.32 -1 39 C1.97 39 4.94 39 8 39 C6.04366025 36.58878141 6.04366025 36.58878141 2.375 36.875 C0.704375 36.936875 0.704375 36.936875 -1 37 Z M-51 73 C-51 73.66 -51 74.32 -51 75 C-50.34 74.67 -49.68 74.34 -49 74 C-49.66 73.67 -50.32 73.34 -51 73 Z " fill="#9F086E" transform="translate(192,20)"/>
<path d="M0 0 C0 3.3 0 6.6 0 10 C1.32 9.67 2.64 9.34 4 9 C11.65755431 8.33986601 17.99902107 10.09894655 24.2734375 14.6484375 C29.00679758 18.67795221 33.71854267 23.10704426 36 29 C36.65677226 37.35891965 37.38170186 46.60587811 33 54 C26.01076772 61.55311939 26.01076772 61.55311939 21 62 C19.32227486 61.3616736 17.65683084 60.69074872 16 60 C13.71505064 59.65968839 11.42198697 59.37128525 9.125 59.125 C3.34703786 58.3582276 -0.26162002 57.32694764 -5 54 C-5.969375 53.46375 -6.93875 52.9275 -7.9375 52.375 C-8.618125 51.92125 -9.29875 51.4675 -10 51 C-10 50.34 -10 49.68 -10 49 C-11.98 49.66 -13.96 50.32 -16 51 C-16 50.34 -16 49.68 -16 49 C-16.63421875 48.80664062 -17.2684375 48.61328125 -17.921875 48.4140625 C-20 47 -20 47 -20.828125 43.9609375 C-20.96734375 42.77757812 -21.1065625 41.59421875 -21.25 40.375 C-21.39953125 39.18648437 -21.5490625 37.99796875 -21.703125 36.7734375 C-21.80109375 35.85820313 -21.8990625 34.94296875 -22 34 C-24.475 36.475 -24.475 36.475 -27 39 C-27.66 38.67 -28.32 38.34 -29 38 C-29.33 39.98 -29.66 41.96 -30 44 C-30.33 44 -30.66 44 -31 44 C-31.6885547 30.89833414 -29.64979884 20.21023026 -21 10 C-15.30474763 4.38126734 -8.2604047 0 0 0 Z M-2 22 C-2.7425 22.433125 -3.485 22.86625 -4.25 23.3125 C-7.45901321 26.40690559 -7.88693765 30.07165877 -8.140625 34.3984375 C-7.95055299 40.57577787 -6.1654823 44.06981902 -1.82421875 48.4375 C2.86783031 52.4563857 7.08666767 52.20045194 13 52 C13 51.34 13 50.68 13 50 C11.91332031 49.90525391 11.91332031 49.90525391 10.8046875 49.80859375 C5.85850162 49.18207687 1.90229765 48.67228574 -1.625 44.9375 C-4.51474226 40.88850067 -5.50870904 36.94295615 -5 32 C-3.76671059 27.87708482 -2.03561514 24.91725912 1.1875 22.0625 C5.06901717 20.59614907 8.87870142 20.26038706 13 20 C13 19.34 13 18.68 13 18 C6.68650484 17.49492039 3.10110774 17.84793556 -2 22 Z M3 35 C3 35.66 3 36.32 3 37 C5.97 37 8.94 37 12 37 C10.04366025 34.58878141 10.04366025 34.58878141 6.375 34.875 C4.704375 34.936875 4.704375 34.936875 3 35 Z " fill="#EA116E" transform="translate(188,22)"/>
<path d="M0 0 C10.42547396 -0.84721685 21.01239654 1.39967532 29.16015625 8.23828125 C39.46344825 18.10406615 44.53107177 26.91505774 45.140625 41.32421875 C44.85092989 54.25910546 39.45449758 64.4516377 30.2109375 73.328125 C27.89085292 75.08253525 25.74060426 76.05761678 23 77 C23.33 74.03 23.66 71.06 24 68 C24.66 68 25.32 68 26 68 C25.79375 67.05125 25.5875 66.1025 25.375 65.125 C25.25125 64.09375 25.1275 63.0625 25 62 C25.66 61.34 26.32 60.68 27 60 C31.31085962 50.56999458 33.66385931 38.16891549 29.9375 28.140625 C28.46540436 25.82047426 26.9271268 23.95588988 25 22 C24.38511719 21.34515625 23.77023438 20.6903125 23.13671875 20.015625 C16.63279692 13.70721184 10.39065213 11.85458297 1.4375 11.8125 C-0.37545431 11.86003064 -2.18831238 11.91723255 -4 12 C-4 8.7 -4 5.4 -4 2 C-5.98 2.99 -5.98 2.99 -8 4 C-10.25 3.625 -10.25 3.625 -12 3 C-8.21812119 1.16308743 -6.05431692 0.84162374 -2 2 C-2 3.65 -2 5.3 -2 7 C-1.34 4.69 -0.68 2.38 0 0 Z " fill="#14D0DD" transform="translate(192,20)"/>
<path d="M0 0 C0 3.3 0 6.6 0 10 C1.32 9.67 2.64 9.34 4 9 C11.65755431 8.33986601 17.99902107 10.09894655 24.2734375 14.6484375 C29.00679758 18.67795221 33.71854267 23.10704426 36 29 C36.21969026 31.79605787 36.33183514 34.45637492 36.3125 37.25 C36.31121094 38.00982178 36.30992187 38.76964355 36.30859375 39.55249023 C36.2157628 44.95119014 35.48191862 49.13957603 33 54 C31.79727181 51.59454362 31.89928528 50.05003047 31.9375 47.375 C31.94652344 46.55773437 31.95554688 45.74046875 31.96484375 44.8984375 C31.97644531 44.27195313 31.98804688 43.64546875 32 43 C31.01 42.505 31.01 42.505 30 42 C30 41.34 30 40.68 30 40 C29.01 39.505 29.01 39.505 28 39 C27.690625 38.34 27.38125 37.68 27.0625 37 C26.1108154 34.65391779 26.1108154 34.65391779 23 34 C22.505 31.03 22.505 31.03 22 28 C20.02 28 18.04 28 16 28 C16 27.34 16 26.68 16 26 C15.34 26 14.68 26 14 26 C13.505 25.01 13.505 25.01 13 24 C6.79602814 23.33160527 6.79602814 23.33160527 1 25.11328125 C-0.81694481 26.61493404 -0.81694481 26.61493404 -3 29 C-3 26 -3 26 -0.625 23.375 C2.77239682 20.30116478 4.1757952 19.87393993 8.625 19.9375 C9.85089844 19.95103516 9.85089844 19.95103516 11.1015625 19.96484375 C11.72804687 19.97644531 12.35453125 19.98804687 13 20 C13 19.34 13 18.68 13 18 C6.82606404 18.27439715 3.03189468 19.13831339 -2 23 C-2.763125 23.350625 -3.52625 23.70125 -4.3125 24.0625 C-6.35897871 24.95072841 -6.35897871 24.95072841 -7 28 C-7.495 25.525 -7.495 25.525 -8 23 C-9.98 22.67 -11.96 22.34 -14 22 C-15.2077558 18.37673261 -14.54311128 17.35853631 -13 14 C-18.9782058 15.11458074 -21.94612259 16.18602057 -26 21 C-26.33 20.34 -26.66 19.68 -27 19 C-22.02044976 10.38830724 -16.26912218 4.07393401 -6.5625 1.0625 C-4.27710026 0.46522025 -2.3584072 0 0 0 Z " fill="#EC923D" transform="translate(188,22)"/>
<path d="M0 0 C20.75 0 20.75 0 26.4375 3.5 C28.91143579 7.45829726 28.78324048 11.46624258 28 16 C26 18.625 26 18.625 24 20 C24.28617187 20.69867188 24.57234375 21.39734375 24.8671875 22.1171875 C26.03782499 25.09625807 27.09917102 28.09310546 28.125 31.125 C28.47820312 32.15882812 28.83140625 33.19265625 29.1953125 34.2578125 C30 37 30 37 30 40 C27.03 40 24.06 40 21 40 C20.65066406 39.00097656 20.30132812 38.00195312 19.94140625 36.97265625 C19.48192081 35.66921795 19.02227721 34.3658354 18.5625 33.0625 C18.33240234 32.40314453 18.10230469 31.74378906 17.86523438 31.06445312 C16.88035408 27.77671378 16.88035408 27.77671378 15 25 C12.69 24.67 10.38 24.34 8 24 C8 29.28 8 34.56 8 40 C5.36 40 2.72 40 0 40 C0 26.8 0 13.6 0 0 Z M8 8 C7.979375 9.299375 7.95875 10.59875 7.9375 11.9375 C7.92589844 12.66839844 7.91429687 13.39929688 7.90234375 14.15234375 C7.79438816 16.01732141 7.79438816 16.01732141 9 17 C14.2668166 17.48901727 14.2668166 17.48901727 19.0625 15.8125 C20.3945522 13.23719907 19.85352401 11.70282604 19 9 C17.96593327 7.74050951 17.96593327 7.74050951 15.71484375 7.90234375 C14.79832031 7.91394531 13.88179688 7.92554688 12.9375 7.9375 C12.01839844 7.94652344 11.09929687 7.95554687 10.15234375 7.96484375 C9.44207031 7.97644531 8.73179687 7.98804688 8 8 Z " fill="#1C62CA" transform="translate(430,36)"/>
<path d="M0 0 C2.3125 1.75 2.3125 1.75 3.375 3.6875 C3.290095 6.4893649 2.14275029 7.70011968 0.3125 9.75 C-0.368125 9.440625 -1.04875 9.13125 -1.75 8.8125 C-5.10877242 7.59762487 -8.12591356 7.01382122 -11.6875 6.75 C-12.6775 7.41 -13.6675 8.07 -14.6875 8.75 C-14.6875 10.07 -14.6875 11.39 -14.6875 12.75 C-13.73488281 12.90855469 -12.78226562 13.06710938 -11.80078125 13.23046875 C-10.54652344 13.46378906 -9.29226563 13.69710937 -8 13.9375 C-6.75863281 14.15792969 -5.51726562 14.37835938 -4.23828125 14.60546875 C-0.13260641 15.92886009 1.64153456 17.39888165 4.3125 20.75 C5.6754084 24.36615898 5.55375178 27.78499288 4.625 31.5 C2.44523259 35.23674413 0.44166794 37.37361069 -3.6875 38.75 C-11.42017596 39.39028527 -17.27432049 38.92197277 -23.6875 34.3125 C-24.6875 32.75 -24.6875 32.75 -24.5 30.75 C-23.6875 28.75 -23.6875 28.75 -21.6875 25.75 C-19.20075833 26.19406101 -17.77049212 26.68574804 -15.75 28.25 C-13.31349594 30.02200295 -11.68375226 30.52528108 -8.6875 30.75 C-6.41892854 29.90922128 -6.41892854 29.90922128 -4.6875 28.75 C-4.6875 27.43 -4.6875 26.11 -4.6875 24.75 C-6.24210937 24.29560547 -6.24210937 24.29560547 -7.828125 23.83203125 C-9.1981931 23.40974999 -10.56796987 22.98652273 -11.9375 22.5625 C-12.61941406 22.36591797 -13.30132812 22.16933594 -14.00390625 21.96679688 C-18.65684065 20.49863796 -21.18529773 18.96456796 -23.6875 14.75 C-24.72496703 10.29499453 -24.26847786 6.72521283 -21.9375 2.8125 C-15.80641308 -2.80766301 -7.61727616 -2.58212751 0 0 Z " fill="#F18436" transform="translate(370.6875,37.25)"/>
<path d="M0 0 C8.58 0 17.16 0 26 0 C26 2.64 26 5.28 26 8 C20.06 8 14.12 8 8 8 C8 10.64 8 13.28 8 16 C13.28 16 18.56 16 24 16 C24 18.31 24 20.62 24 23 C18.72 23 13.44 23 8 23 C8.33 25.97 8.66 28.94 9 32 C14.94 32.33 20.88 32.66 27 33 C27 35.31 27 37.62 27 40 C18.09 40 9.18 40 0 40 C0 26.8 0 13.6 0 0 Z " fill="#BA518F" transform="translate(388,36)"/>
<path d="M0 0 C5.33333333 -0.48484848 5.33333333 -0.48484848 8.0625 1.5 C10.65104758 4.84006139 12.84829539 8.36679386 15 12 C17.37995589 9.82521272 18.76026828 7.71807954 20.25 4.875 C22.30704116 1.46743941 22.62617793 1.10771144 26.6875 -0.0625 C30 0 30 0 32 1 C30.14010606 6.13595079 27.2846146 10.47266965 24.36328125 15.0625 C22.82083088 17.82769658 22.82083088 17.82769658 23.0390625 20.4296875 C24.33408284 23.89360369 26.14536831 26.97944715 28.0625 30.125 C32 36.6 32 36.6 32 40 C28.75022459 40.79586337 26.2119401 41.03331829 23 40 C20.02724031 36.3045805 18.05226437 32.25722697 16 28 C15.67 27.67 15.34 27.34 15 27 C14.52691406 27.9384375 14.05382812 28.876875 13.56640625 29.84375 C8.36851668 39.53398739 8.36851668 39.53398739 4.46484375 40.86328125 C2.18423848 40.81629572 0.19889366 40.5955337 -2 40 C-0.22596959 35.00818039 2.54408603 30.66938509 5.4296875 26.25976562 C7.29479126 23.19039523 8.09350176 21.53371079 7.46484375 17.9453125 C5.35019614 13.69346104 2.88578334 9.72584721 0.36328125 5.70703125 C-0.08660156 4.81371094 -0.53648437 3.92039063 -1 3 C-0.67 2.01 -0.34 1.02 0 0 Z " fill="#6FD8E3" transform="translate(262,36)"/>
<path d="M0 0 C1.32 0 2.64 0 4 0 C4 1.65 4 3.3 4 5 C4.7425 5.268125 5.485 5.53625 6.25 5.8125 C9 7 9 7 10.9375 8.5625 C16.470714 12.41898249 24.83420065 11.41826925 31.22265625 10.57421875 C38.76368809 9.16298087 43.33687273 7.18924165 48 1 C48 3.6506582 47.63174297 5.47302813 47 8 C47 8.99 47 9.98 47 11 C46.34 11 45.68 11 45 11 C45.020625 12.27875 45.04125 13.5575 45.0625 14.875 C45.125 18.75 45.125 18.75 44 21 C33.85188913 26.06194552 22.72894532 26.01163377 12 23 C6.08042516 20.78149267 1.58145567 17.29511469 -3 13 C-2.75 10.6875 -2.75 10.6875 -2 8 C-0.67151309 6.99357052 0.66150329 5.99307821 2 5 C2 3.68 2 2.36 2 1 C1.34 0.67 0.68 0.34 0 0 Z " fill="#1E73D0" transform="translate(171,77)"/>
<path d="M0 0 C10.42125579 -0.84687406 21.00511397 1.39786628 29.15234375 8.23046875 C39.61566485 18.25136612 39.61566485 18.25136612 41 25 C40.21625 24.814375 39.4325 24.62875 38.625 24.4375 C36.02910225 23.74037734 36.02910225 23.74037734 34 25 C33.505 26.485 33.505 26.485 33 28 C32.34 28 31.68 28 31 28 C31 26.68 31 25.36 31 24 C30.26265625 23.91492188 29.5253125 23.82984375 28.765625 23.7421875 C25.44069116 22.84990299 24.15329539 21.55499868 21.75 19.125 C14.46582098 12.42883543 8.01913908 11.63994766 -1.69140625 11.89453125 C-2.45324219 11.92933594 -3.21507812 11.96414062 -4 12 C-4 8.7 -4 5.4 -4 2 C-5.98 2.99 -5.98 2.99 -8 4 C-10.25 3.625 -10.25 3.625 -12 3 C-8.21812119 1.16308743 -6.05431692 0.84162374 -2 2 C-2 3.65 -2 5.3 -2 7 C-1.34 4.69 -0.68 2.38 0 0 Z " fill="#1AE3E1" transform="translate(192,20)"/>
<path d="M0 0 C2.97 0 5.94 0 9 0 C11.64 4.62 14.28 9.24 17 14 C19.58930535 9.76766246 19.58930535 9.76766246 22.17553711 5.53344727 C24.88888889 1.11111111 24.88888889 1.11111111 26 0 C28.67058851 -0.14115161 31.32432238 -0.04247107 34 0 C33.443085 3.61286809 32.55335245 6.08185796 30.53125 9.1171875 C24.04638529 19.27043126 20.21340867 26.7621024 21 39 C18.36 39 15.72 39 13 39 C13.06703125 38.16082031 13.1340625 37.32164063 13.203125 36.45703125 C13.36414735 23.93754369 7.74443902 15.34100767 1.08569336 5.03027344 C0 3 0 3 0 0 Z " fill="#EE3A6E" transform="translate(301,36)"/>
<path d="M0 0 C0.90492188 0.02320313 1.80984375 0.04640625 2.7421875 0.0703125 C3.65226562 0.08835938 4.56234375 0.10640625 5.5 0.125 C6.19867188 0.14820313 6.89734375 0.17140625 7.6171875 0.1953125 C7.9471875 1.1853125 8.2771875 2.1753125 8.6171875 3.1953125 C9.2771875 3.1953125 9.9371875 3.1953125 10.6171875 3.1953125 C10.6171875 3.8553125 10.6171875 4.5153125 10.6171875 5.1953125 C11.9371875 5.1953125 13.2571875 5.1953125 14.6171875 5.1953125 C15.6071875 8.4953125 16.5971875 11.7953125 17.6171875 15.1953125 C16.2971875 15.5253125 14.9771875 15.8553125 13.6171875 16.1953125 C12.9571875 15.2053125 12.2971875 14.2153125 11.6171875 13.1953125 C10.9571875 13.8553125 10.2971875 14.5153125 9.6171875 15.1953125 C6.359375 15.390625 6.359375 15.390625 2.4921875 15.3203125 C0.57019531 15.29324219 0.57019531 15.29324219 -1.390625 15.265625 C-2.87175781 15.23082031 -2.87175781 15.23082031 -4.3828125 15.1953125 C-4.3828125 13.8753125 -4.3828125 12.5553125 -4.3828125 11.1953125 C-5.3728125 11.1953125 -6.3628125 11.1953125 -7.3828125 11.1953125 C-7.64796367 16.52982208 -7.64796367 16.52982208 -5.3828125 21.1953125 C-4.05977533 21.5674167 -2.72543315 21.90161423 -1.3828125 22.1953125 C-0.7228125 23.1853125 -0.0628125 24.1753125 0.6171875 25.1953125 C2.58080614 25.77280053 2.58080614 25.77280053 4.7421875 25.8828125 C6.0209375 25.9859375 7.2996875 26.0890625 8.6171875 26.1953125 C8.6171875 27.5153125 8.6171875 28.8353125 8.6171875 30.1953125 C5.90823983 30.27676193 3.20177487 30.33601864 0.4921875 30.3828125 C-0.26835937 30.40794922 -1.02890625 30.43308594 -1.8125 30.45898438 C-6.68441691 30.5219833 -10.32677074 30.20891362 -14.3828125 27.1953125 C-15.75340256 22.95785503 -15.41038648 18.85104701 -15.0703125 14.4453125 C-14.99167969 13.31609375 -14.91304687 12.186875 -14.83203125 11.0234375 C-14.3828125 8.1953125 -14.3828125 8.1953125 -12.3828125 6.1953125 C-12.41761719 6.76378906 -12.45242187 7.33226562 -12.48828125 7.91796875 C-12.73242153 14.88177948 -11.65194343 19.6425402 -6.8828125 25.0078125 C-2.7032573 28.23264697 2.51500852 28.58704561 7.6171875 29.1953125 C7.6171875 28.5353125 7.6171875 27.8753125 7.6171875 27.1953125 C5.791875 27.288125 5.791875 27.288125 3.9296875 27.3828125 C-1.62932146 27.35345154 -4.14964831 25.37242378 -8.1328125 21.5703125 C-11.07576942 17.87773448 -11.50622408 13.82324676 -11.3828125 9.1953125 C-10.04355126 5.17752878 -7.89146781 4.41507402 -4.3828125 2.1953125 C-2.3828125 0.1953125 -2.3828125 0.1953125 0 0 Z M-2.3828125 12.1953125 C-2.3828125 12.8553125 -2.3828125 13.5153125 -2.3828125 14.1953125 C0.5871875 14.1953125 3.5571875 14.1953125 6.6171875 14.1953125 C4.66084775 11.78409391 4.66084775 11.78409391 0.9921875 12.0703125 C-0.6784375 12.1321875 -0.6784375 12.1321875 -2.3828125 12.1953125 Z " fill="#F85845" transform="translate(193.3828125,44.8046875)"/>
<path d="M0 0 C-0.33 0.94875 -0.66 1.8975 -1 2.875 C-2.10159191 5.77062452 -2.10159191 5.77062452 -2 8 C-1.1028125 7.6596875 -1.1028125 7.6596875 -0.1875 7.3125 C2 7 2 7 3.8125 8 C5.29107821 10.49023698 4.93941392 11.92589367 4.38671875 14.6953125 C3.69863646 18.79600496 3.60560036 22.96135506 3.37890625 27.109375 C3 30 3 30 1 33 C-1 30 -1 30 -1 26 C-1.99 26.99 -2.98 27.98 -4 29 C-4.99 28.67 -5.98 28.34 -7 28 C-8.00496852 24.98509443 -8.10335303 22.95818308 -8.0625 19.8125 C-8.05347656 18.91144531 -8.04445312 18.01039062 -8.03515625 17.08203125 C-8.02355469 16.39496094 -8.01195312 15.70789063 -8 15 C-8.55429688 15.3609375 -9.10859375 15.721875 -9.6796875 16.09375 C-10.40414062 16.5578125 -11.12859375 17.021875 -11.875 17.5 C-12.59429687 17.9640625 -13.31359375 18.428125 -14.0546875 18.90625 C-16 20 -16 20 -18 20 C-18 23.3 -18 26.6 -18 30 C-18.33 30 -18.66 30 -19 30 C-19.67132499 12.52068645 -19.67132499 12.52068645 -16 7 C-13.95703125 6.390625 -13.95703125 6.390625 -12 6 C-10.90833725 4.06669397 -10.90833725 4.06669397 -10 2 C-6.70021068 -0.19985954 -3.76967739 -1.88483869 0 0 Z " fill="#F7186D" transform="translate(176,36)"/>
<path d="M0 0 C1.77811971 3.28268253 3.04213316 6.69601335 4.31640625 10.1953125 C5.52867031 13.39568962 5.95880039 13.97253359 9 16 C8.32195312 16.54527344 7.64390625 17.09054688 6.9453125 17.65234375 C1.18521944 22.31945516 -4.30888081 27.06267461 -9.61328125 32.25 C-12.46543242 34.34126633 -14.49610463 34.76992205 -18 35 C-20.375 34 -20.375 34 -22 32 C-22.5625 28.625 -22.5625 28.625 -22 25 C-19.80859375 22.58984375 -19.80859375 22.58984375 -17 20 C-16.1028125 19.16339844 -15.205625 18.32679687 -14.28125 17.46484375 C-13.3634375 16.63082031 -12.445625 15.79679687 -11.5 14.9375 C-10.5821875 14.10089844 -9.664375 13.26429687 -8.71875 12.40234375 C-6 10 -6 10 -3.20703125 7.89453125 C-0.69391868 6.10663087 -0.69391868 6.10663087 -0.1875 2.75 C-0.0946875 1.38875 -0.0946875 1.38875 0 0 Z M-17 27 C-17 27.66 -17 28.32 -17 29 C-16.34 28.67 -15.68 28.34 -15 28 C-15.66 27.67 -16.32 27.34 -17 27 Z " fill="#19C1D6" transform="translate(158,66)"/>
<path d="M0 0 C0.66 0 1.32 0 2 0 C2.33 1.98 2.66 3.96 3 6 C3.598125 6.061875 4.19625 6.12375 4.8125 6.1875 C7.90339529 7.33554682 8.5880344 9.10547052 10 12 C10 12.66 10 13.32 10 14 C10.99 14.33 11.98 14.66 13 15 C13 17.64 13 20.28 13 23 C12.01 23.33 11.02 23.66 10 24 C9.67 24.66 9.34 25.32 9 26 C6 26.6875 6 26.6875 3 27 C2.67 26.67 2.34 26.34 2 26 C0.32457024 26.28604898 -1.34385343 26.61781233 -3 27 C-3.77842938 23.59437148 -4.09978121 20.49234244 -4 17 C-4.556875 16.87625 -5.11375 16.7525 -5.6875 16.625 C-8.22114364 15.94023145 -10.57921032 15.00866237 -13 14 C-13 13.01 -13 12.02 -13 11 C-14.65 11 -16.3 11 -18 11 C-18 10.67 -18 10.34 -18 10 C-16.64455078 9.92652344 -16.64455078 9.92652344 -15.26171875 9.8515625 C-13.49248047 9.73941406 -13.49248047 9.73941406 -11.6875 9.625 C-9.92986328 9.52058594 -9.92986328 9.52058594 -8.13671875 9.4140625 C-4.84300113 9.21386253 -4.84300113 9.21386253 -2 7 C-1.67 8.32 -1.34 9.64 -1 11 C-0.01 10.67 0.98 10.34 2 10 C1.34 6.7 0.68 3.4 0 0 Z " fill="#F92862" transform="translate(208,50)"/>
<path d="M0 0 C0.66 0 1.32 0 2 0 C2 0.66 2 1.32 2 2 C2.66386719 2.18175781 3.32773438 2.36351562 4.01171875 2.55078125 C8.7928384 3.91182991 12.78106582 5.3152237 17 8 C17.99 8 18.98 8 20 8 C22.52988104 11.83009878 22.34313967 15.82304627 22.3125 20.25 C22.31121094 21.00982178 22.30992187 21.76964355 22.30859375 22.55249023 C22.2157628 27.95119014 21.48191862 32.13957603 19 37 C17.79727181 34.59454362 17.89928528 33.05003047 17.9375 30.375 C17.94652344 29.55773437 17.95554688 28.74046875 17.96484375 27.8984375 C17.97644531 27.27195312 17.98804688 26.64546875 18 26 C17.34 25.67 16.68 25.34 16 25 C16 24.34 16 23.68 16 23 C15.34 22.67 14.68 22.34 14 22 C13.5359375 21.01 13.5359375 21.01 13.0625 20 C12.1108154 17.65391779 12.1108154 17.65391779 9 17 C8.67 15.02 8.34 13.04 8 11 C6.02 11 4.04 11 2 11 C2 10.34 2 9.68 2 9 C1.34 9 0.68 9 0 9 C-0.33 8.34 -0.66 7.68 -1 7 C-2.89533342 6.53476937 -2.89533342 6.53476937 -5.0625 6.375 C-6.361875 6.25125 -7.66125 6.1275 -9 6 C-8.67 5.34 -8.34 4.68 -8 4 C-5.36 4 -2.72 4 0 4 C0 2.68 0 1.36 0 0 Z " fill="#F4703B" transform="translate(202,39)"/>
<path d="M0 0 C1.67542976 0.28604898 3.34385343 0.61781233 5 1 C4.9071875 2.8871875 4.9071875 2.8871875 4.8125 4.8125 C4.76367078 8.16958979 4.76367078 8.16958979 6.5 11 C6.995 11.33 7.49 11.66 8 12 C7.01 12.495 7.01 12.495 6 13 C5.67 13.99 5.34 14.98 5 16 C3.02 16 1.04 16 -1 16 C-1 16.66 -1 17.32 -1 18 C-0.34 18 0.32 18 1 18 C1 18.99 1 19.98 1 21 C0.071875 20.67 -0.85625 20.34 -1.8125 20 C-4.92029291 18.85032996 -4.92029291 18.85032996 -8 19 C-9.2077558 15.37673261 -8.54311128 14.35853631 -7 11 C-12.9782058 12.11458074 -15.94612259 13.18602057 -20 18 C-20.33 17.34 -20.66 16.68 -21 16 C-20.06692579 14.55962331 -19.12834923 13.12281015 -18.1875 11.6875 C-17.66542969 10.88699219 -17.14335937 10.08648437 -16.60546875 9.26171875 C-15.17143501 7.24151064 -13.91277289 5.567685 -12 4 C-9.6739143 3.61936779 -7.33944736 3.28730055 -5 3 C-3.00354906 2.15938908 -1.52275202 1.52275202 0 0 Z " fill="#F77037" transform="translate(182,25)"/>
<path d="M0 0 C20.75 0 20.75 0 26.4375 3.5 C28.90000138 7.44000221 28.3108552 11.47532988 28 16 C27.67 16 27.34 16 27 16 C27 13.03 27 10.06 27 7 C25.68 7 24.36 7 23 7 C22.34 9.97 21.68 12.94 21 16 C20.34 16 19.68 16 19 16 C19.020625 15.030625 19.04125 14.06125 19.0625 13.0625 C19.35618499 10.12534105 19.35618499 10.12534105 18 9 C16.31816052 8.76712992 14.6287584 8.58735834 12.9375 8.4375 C12.01839844 8.35371094 11.09929687 8.26992188 10.15234375 8.18359375 C9.44207031 8.12300781 8.73179687 8.06242187 8 8 C8 7.67 8 7.34 8 7 C10.64 6.67 13.28 6.34 16 6 C13.36 5.67 10.72 5.34 8 5 C8 4.34 8 3.68 8 3 C6.02 3 4.04 3 2 3 C2 13.23 2 23.46 2 34 C3.65 34 5.3 34 7 34 C7 31.03 7 28.06 7 25 C7.33 25 7.66 25 8 25 C8 29.95 8 34.9 8 40 C5.36 40 2.72 40 0 40 C0 26.8 0 13.6 0 0 Z " fill="#5380C7" transform="translate(430,36)"/>
<path d="M0 0 C3.75657223 0.26208643 5.7453102 0.81322748 8.8125 3.0625 C11.54398872 6.73049914 12.16546221 9.47736631 12 14 C10.99093079 18.03627686 9.1557543 20.32239029 6 23 C0.32735332 24.89088223 -6.41229844 24.96795085 -12 22.6875 C-16.6875 20.05078125 -16.6875 20.05078125 -18 18 C-17.71483972 14.9582904 -16.73969465 13.60954198 -15 11 C-12.51325833 11.44406101 -11.08299212 11.93574804 -9.0625 13.5 C-6.60688724 15.28590019 -5.02289278 15.77881272 -2 16 C0.75256244 15.15020525 0.75256244 15.15020525 3 14 C3 15.65 3 17.3 3 19 C3.33 18.67 3.66 18.34 4 18 C5.65 18 7.3 18 9 18 C8.505 11.565 8.505 11.565 8 5 C6.02 5 4.04 5 2 5 C2 4.34 2 3.68 2 3 C1.01 2.67 0.02 2.34 -1 2 C-0.67 1.34 -0.34 0.68 0 0 Z " fill="#EB8D48" transform="translate(364,52)"/>
<path d="M0 0 C5.33333333 -0.48484848 5.33333333 -0.48484848 8.0625 1.5 C10.25710776 4.33175194 12.07173276 7.28442533 13.8515625 10.390625 C14.23054688 10.92171875 14.60953125 11.4528125 15 12 C15.66 12 16.32 12 17 12 C16.67 12.99 16.34 13.98 16 15 C14.68 14.67 13.36 14.34 12 14 C11.11112566 16.66662301 10.82294566 18.61318677 10.625 21.375 C10.0567458 26.84444664 8.07882341 30.30963597 4 34 C5.65 33.34 7.3 32.68 9 32 C8.125 38.875 8.125 38.875 7 40 C5.48071962 40.07179964 3.95832518 40.08392007 2.4375 40.0625 C1.61121094 40.05347656 0.78492188 40.04445312 -0.06640625 40.03515625 C-0.70449219 40.02355469 -1.34257812 40.01195312 -2 40 C-0.22596959 35.00818039 2.54408603 30.66938509 5.4296875 26.25976562 C7.29479126 23.19039523 8.09350176 21.53371079 7.46484375 17.9453125 C5.35019614 13.69346104 2.88578334 9.72584721 0.36328125 5.70703125 C-0.08660156 4.81371094 -0.53648437 3.92039063 -1 3 C-0.67 2.01 -0.34 1.02 0 0 Z " fill="#89DDE6" transform="translate(262,36)"/>
<path d="M0 0 C1.32 0 2.64 0 4 0 C4 1.65 4 3.3 4 5 C4.7425 5.268125 5.485 5.53625 6.25 5.8125 C9 7 9 7 10.9375 8.5625 C16.34912981 12.33424199 24.75259847 11.48249506 31.0234375 10.55078125 C33.69050235 10.0674186 36.34707713 9.55537825 39 9 C39 9.66 39 10.32 39 11 C34.48592581 14.85986054 29.79282246 14.35051833 24.1875 14.1875 C23.30384766 14.17396484 22.42019531 14.16042969 21.50976562 14.14648438 C19.33957977 14.11129217 17.16970967 14.05748985 15 14 C14.01 15.98 13.02 17.96 12 20 C5.05992846 19.75648872 1.82732192 17.93291958 -3 13 C-2.75 10.6875 -2.75 10.6875 -2 8 C-0.67151309 6.99357052 0.66150329 5.99307821 2 5 C2 3.68 2 2.36 2 1 C1.34 0.67 0.68 0.34 0 0 Z " fill="#0C4EB8" transform="translate(171,77)"/>
<path d="M0 0 C8.14403645 2.29051025 14.78939569 9.93376093 19 17 C19.66015625 19.23828125 19.66015625 19.23828125 20 21 C19.21625 20.814375 18.4325 20.62875 17.625 20.4375 C15.02910225 19.74037734 15.02910225 19.74037734 13 21 C12.67 21.99 12.34 22.98 12 24 C11.34 24 10.68 24 10 24 C10 22.68 10 21.36 10 20 C9.26265625 19.91492188 8.5253125 19.82984375 7.765625 19.7421875 C4.44069116 18.84990299 3.15329539 17.55499868 0.75 15.125 C-3.51008656 11.12982638 -7.34248658 9.28397468 -13 8 C-13 7.67 -13 7.34 -13 7 C-10.36 7 -7.72 7 -5 7 C-5 7.66 -5 8.32 -5 9 C-3.02 8.67 -1.04 8.34 1 8 C1.99 9.485 1.99 9.485 3 11 C3.99 10.67 4.98 10.34 6 10 C6.44751962 6.16826599 6.44751962 6.16826599 4.6875 4.55078125 C4.130625 4.14214844 3.57375 3.73351562 3 3.3125 C2.01 2.549375 1.02 1.78625 0 1 C0 0.67 0 0.34 0 0 Z " fill="#17E2E2" transform="translate(213,24)"/>
<path d="M0 0 C0.66 0.99 1.32 1.98 2 3 C1 6 1 6 -1 7 C-0.71382813 7.69867188 -0.42765625 8.39734375 -0.1328125 9.1171875 C1.03782499 12.09625807 2.09917102 15.09310546 3.125 18.125 C3.47820312 19.15882812 3.83140625 20.19265625 4.1953125 21.2578125 C5 24 5 24 5 27 C2.03 27 -0.94 27 -4 27 C-4.34933594 26.00097656 -4.69867188 25.00195312 -5.05859375 23.97265625 C-5.51807919 22.66921795 -5.97772279 21.3658354 -6.4375 20.0625 C-6.66759766 19.40314453 -6.89769531 18.74378906 -7.13476562 18.06445312 C-8.11964592 14.77671378 -8.11964592 14.77671378 -10 12 C-12.32817964 11.63239269 -14.6618385 11.29758419 -17 11 C-17 10.67 -17 10.34 -17 10 C-9.375 8.875 -9.375 8.875 -6 10 C-6 8.35 -6 6.7 -6 5 C-3 4 -3 4 0 4 C0 2.68 0 1.36 0 0 Z " fill="#326DCC" transform="translate(455,49)"/>
<path d="M0 0 C0.61875 0.185625 1.2375 0.37125 1.875 0.5625 C4.04160178 1.23686176 4.04160178 1.23686176 6 0 C7.50787377 2.59988552 9.00645461 5.20440197 10.5 7.8125 C10.92925781 8.55048828 11.35851562 9.28847656 11.80078125 10.04882812 C12.40986328 11.11713867 12.40986328 11.11713867 13.03125 12.20703125 C13.40830078 12.8616333 13.78535156 13.51623535 14.17382812 14.19067383 C15 16 15 16 15 19 C11.75022459 19.79586337 9.2119401 20.03331829 6 19 C3.02724031 15.3045805 1.05226437 11.25722697 -1 7 C-1.33 6.67 -1.66 6.34 -2 6 C-3.32 8.31 -4.64 10.62 -6 13 C-6.33 13 -6.66 13 -7 13 C-7 11.35 -7 9.7 -7 8 C-6.34 8 -5.68 8 -5 8 C-5 6.68 -5 5.36 -5 4 C-4.360625 3.71125 -3.72125 3.4225 -3.0625 3.125 C-0.84793921 2.17176549 -0.84793921 2.17176549 0 0 Z " fill="#7CDCE7" transform="translate(279,57)"/>
<path d="M0 0 C1.77811971 3.28268253 3.04213316 6.69601335 4.31640625 10.1953125 C5.52867031 13.39568962 5.95880039 13.97253359 9 16 C3.25 21 3.25 21 1 21 C1.185625 19.783125 1.37125 18.56625 1.5625 17.3125 C1.98993182 13.97022061 1.92258883 11.28031583 1 8 C-0.11375 9.175625 -0.11375 9.175625 -1.25 10.375 C-4 13 -4 13 -6.0625 13.9375 C-9.03068907 15.56521659 -10.27356658 18.16371653 -12 21 C-11.34 21 -10.68 21 -10 21 C-11.19899698 24.0831351 -12.47700477 27.06279492 -14 30 C-18.75 29.125 -18.75 29.125 -21 28 C-20.67 29.65 -20.34 31.3 -20 33 C-20.66 32.67 -21.32 32.34 -22 32 C-22.3125 28.8125 -22.3125 28.8125 -22 25 C-19.82421875 22.578125 -19.82421875 22.578125 -17 20 C-16.1028125 19.16339844 -15.205625 18.32679687 -14.28125 17.46484375 C-13.3634375 16.63082031 -12.445625 15.79679687 -11.5 14.9375 C-10.5821875 14.10089844 -9.664375 13.26429687 -8.71875 12.40234375 C-6 10 -6 10 -3.20703125 7.89453125 C-0.69391868 6.10663087 -0.69391868 6.10663087 -0.1875 2.75 C-0.0946875 1.38875 -0.0946875 1.38875 0 0 Z M-17 27 C-17 27.66 -17 28.32 -17 29 C-16.34 28.67 -15.68 28.34 -15 28 C-15.66 27.67 -16.32 27.34 -17 27 Z " fill="#39D3E1" transform="translate(158,66)"/>
<path d="M0 0 C4.09721029 4.09721029 3.90266942 10.80493932 4.1484375 16.34765625 C3.82778376 29.27583191 -1.54589271 39.4520125 -10.7890625 48.328125 C-13.10914708 50.08253525 -15.25939574 51.05761678 -18 52 C-17.67 49.03 -17.34 46.06 -17 43 C-15.35 43.66 -13.7 44.32 -12 45 C-12 44.34 -12 43.68 -12 43 C-11.34 43 -10.68 43 -10 43 C-10 42.34 -10 41.68 -10 41 C-8.68 41 -7.36 41 -6 41 C-6.33 39.35 -6.66 37.7 -7 36 C-6.34 36 -5.68 36 -5 36 C-5.2475 35.4225 -5.495 34.845 -5.75 34.25 C-5.87375 33.13625 -5.87375 33.13625 -6 32 C-4.1875 29.75 -4.1875 29.75 -2 28 C-1.34 28 -0.68 28 0 28 C-0.04125 27.0925 -0.0825 26.185 -0.125 25.25 C-0.14765822 19.75538156 1.00961818 14.38520114 2 9 C1.34 9 0.68 9 0 9 C0 6.03 0 3.06 0 0 Z " fill="#2BC3D9" transform="translate(233,45)"/>
<path d="M0 0 C3.61445184 3.61445184 4.10633785 9.08485819 5 14 C4.34 14 3.68 14 3 14 C2.34 17.96 1.68 21.92 1 26 C1.99 25.67 2.98 25.34 4 25 C4 25.99 4 26.98 4 28 C3.34 28 2.68 28 2 28 C2.33 29.65 2.66 31.3 3 33 C1.68 33 0.36 33 -1 33 C-1 33.66 -1 34.32 -1 35 C-1.66 35 -2.32 35 -3 35 C-3 35.66 -3 36.32 -3 37 C-3.99 36.67 -4.98 36.34 -6 36 C-6.625 32.625 -6.625 32.625 -7 29 C-6.34 28.34 -5.68 27.68 -5 27 C-2.04217829 20.52976502 -0.75094976 14.14288709 -0.375 7.0625 C-0.33632812 6.37865234 -0.29765625 5.69480469 -0.2578125 4.99023438 C-0.16477588 3.32720487 -0.08136213 1.66364153 0 0 Z " fill="#06A9DE" transform="translate(224,53)"/>
<path d="M0 0 C3.37462715 0.54723683 5.08235 1.0549 8 3 C8.2487793 5.06298828 8.2487793 5.06298828 8.07421875 7.5703125 C7.99204102 8.91416016 7.99204102 8.91416016 7.90820312 10.28515625 C7.83537109 11.22230469 7.76253906 12.15945312 7.6875 13.125 C7.62626953 14.06988281 7.56503906 15.01476562 7.50195312 15.98828125 C7.34841324 18.32681186 7.18053924 20.66342389 7 23 C4.69 23 2.38 23 0 23 C-0.06058594 21.96359375 -0.12117188 20.9271875 -0.18359375 19.859375 C-0.26803371 18.48957127 -0.35267997 17.11978025 -0.4375 15.75 C-0.47681641 15.06808594 -0.51613281 14.38617188 -0.55664062 13.68359375 C-0.7296861 10.94148858 -0.91765196 8.32505807 -1.59375 5.65625 C-2 4 -2 4 -1.0625 1.75 C-0.711875 1.1725 -0.36125 0.595 0 0 Z " fill="#EC3166" transform="translate(314,52)"/>
<path d="M0 0 C7.71691469 -0.57162331 14.07492935 1.06273879 20.34375 5.75390625 C23.00981461 8.06739347 25.50514176 10.50514176 28 13 C27.625 15.125 27.625 15.125 27 17 C26.38125 16.5875 25.7625 16.175 25.125 15.75 C20.9155432 13.39270419 16.49977472 11.72127305 12 10 C12 9.34 12 8.68 12 8 C11.38511719 7.80664062 10.77023438 7.61328125 10.13671875 7.4140625 C8.92435547 7.02347656 8.92435547 7.02347656 7.6875 6.625 C6.88699219 6.36976562 6.08648437 6.11453125 5.26171875 5.8515625 C3 5 3 5 0 3 C0 2.01 0 1.02 0 0 Z " fill="#F4A020" transform="translate(192,31)"/>
<path d="M0 0 C0.95123873 2.8537162 1.09086476 4.78651939 1.1875 7.75 C1.70187519 13.33464495 3.73286266 16.440583 8 20 C12.04004999 22.33897631 16.41857695 22.53409257 21 23 C21 22.34 21 21.68 21 21 C19.1746875 21.0928125 19.1746875 21.0928125 17.3125 21.1875 C11.75349104 21.15813904 9.23316419 19.17711128 5.25 15.375 C2.35665502 11.73321878 1.65908922 7.58918357 2 3 C2.66 2.01 3.32 1.02 4 0 C4.12117187 0.74765625 4.24234375 1.4953125 4.3671875 2.265625 C4.53476563 3.25046875 4.70234375 4.2353125 4.875 5.25 C5.03742188 6.22453125 5.19984375 7.1990625 5.3671875 8.203125 C5.95401158 10.79674252 6.58754245 12.75576189 8 15 C9.32303717 15.3721042 10.65737935 15.70630173 12 16 C12.66 16.99 13.32 17.98 14 19 C15.96361864 19.57748803 15.96361864 19.57748803 18.125 19.6875 C19.40375 19.790625 20.6825 19.89375 22 20 C22 21.32 22 22.64 22 24 C19.29105233 24.08144943 16.58458737 24.14070614 13.875 24.1875 C13.11445313 24.21263672 12.35390625 24.23777344 11.5703125 24.26367188 C6.69839559 24.3266708 3.05604176 24.01360112 -1 21 C-2.38179744 16.74646702 -2.00166019 12.66812228 -1.625 8.25 C-1.53476563 7.12078125 -1.44453125 5.9915625 -1.3515625 4.828125 C-1 2 -1 2 0 0 Z " fill="#EE0C72" transform="translate(180,51)"/>
<path d="M0 0 C1.32 0.33 2.64 0.66 4 1 C4 3.97 4 6.94 4 10 C1.69 10.66 -0.62 11.32 -3 12 C-3.33 13.65 -3.66 15.3 -4 17 C-7.63 17 -11.26 17 -15 17 C-15.33 17.66 -15.66 18.32 -16 19 C-16.33 16.03 -16.66 13.06 -17 10 C-12.05 10 -7.1 10 -2 10 C-2 8.35 -2 6.7 -2 5 C-1 2.1875 -1 2.1875 0 0 Z " fill="#3E72C2" transform="translate(453,42)"/>
<path d="M0 0 C2.203125 0.01171875 2.203125 0.01171875 5.828125 0.57421875 C5.25147109 5.36136155 3.18729504 8.82550699 0.765625 12.88671875 C0.20004883 13.85448242 0.20004883 13.85448242 -0.37695312 14.84179688 C-1.30224993 16.42300027 -2.23620181 17.99913335 -3.171875 19.57421875 C-3.501875 19.57421875 -3.831875 19.57421875 -4.171875 19.57421875 C-4.31625 18.79046875 -4.460625 18.00671875 -4.609375 17.19921875 C-5.04986425 14.61000857 -5.04986425 14.61000857 -6.171875 12.57421875 C-6.831875 12.57421875 -7.491875 12.57421875 -8.171875 12.57421875 C-8.171875 13.56421875 -8.171875 14.55421875 -8.171875 15.57421875 C-8.831875 15.57421875 -9.491875 15.57421875 -10.171875 15.57421875 C-8.78789759 10.17670687 -5.97349865 1.57932428 0 0 Z " fill="#ED5784" transform="translate(329.171875,35.42578125)"/>
<path d="M0 0 C1.0625 1.875 1.0625 1.875 2 4 C1.67 4.66 1.34 5.32 1 6 C1.99 6 2.98 6 4 6 C4 6.99 4 7.98 4 9 C0.04 9 -3.92 9 -8 9 C-8 10.65 -8 12.3 -8 14 C-8.33 12.68 -8.66 11.36 -9 10 C-9.99 10 -10.98 10 -12 10 C-12.66 10.99 -13.32 11.98 -14 13 C-14.29779161 10.0717158 -14.49631943 7.85647674 -14 5 C-9.66498111 -0.20202267 -6.58104326 -0.56733132 0 0 Z " fill="#F73660" transform="translate(198,46)"/>
<path d="M0 0 C0.33 0.66 0.66 1.32 1 2 C0.01 2.495 0.01 2.495 -1 3 C2.3 3.33 5.6 3.66 9 4 C7 8 7 8 4 10 C4.33 11.32 4.66 12.64 5 14 C6.32 14.33 7.64 14.66 9 15 C9 15.99 9 16.98 9 18 C8.071875 17.67 7.14375 17.34 6.1875 17 C3.07970709 15.85032996 3.07970709 15.85032996 0 16 C-1.2077558 12.37673261 -0.54311128 11.35853631 1 8 C-4.9782058 9.11458074 -7.94612259 10.18602057 -12 15 C-12.33 14.34 -12.66 13.68 -13 13 C-12.06692579 11.55962331 -11.12834923 10.12281015 -10.1875 8.6875 C-9.66542969 7.88699219 -9.14335937 7.08648437 -8.60546875 6.26171875 C-6.07183946 2.69244537 -4.39244495 0.7573181 0 0 Z " fill="#F7484E" transform="translate(174,28)"/>
<path d="M0 0 C8.25 0 16.5 0 25 0 C25 1.98 25 3.96 25 6 C19.06 6 13.12 6 7 6 C7 4.68 7 3.36 7 2 C4.69 2.66 2.38 3.32 0 4 C0 2.68 0 1.36 0 0 Z " fill="#951F62" transform="translate(389,37)"/>
<path d="M0 0 C0 0.66 0 1.32 0 2 C0.66 2.33 1.32 2.66 2 3 C2 3.66 2 4.32 2 5 C2.969375 4.814375 3.93875 4.62875 4.9375 4.4375 C6.4534375 4.2209375 6.4534375 4.2209375 8 4 C9 5 9 5 9.09765625 7.94140625 C9.08605469 9.13636719 9.07445312 10.33132812 9.0625 11.5625 C9.05347656 12.76003906 9.04445313 13.95757812 9.03515625 15.19140625 C9.02355469 16.11824219 9.01195312 17.04507813 9 18 C7.35 18 5.7 18 4 18 C4 18.66 4 19.32 4 20 C3.34 19.67 2.68 19.34 2 19 C2.66 16.03 3.32 13.06 4 10 C4.66 10 5.32 10 6 10 C6 8.68 6 7.36 6 6 C4.845 6.04125 3.69 6.0825 2.5 6.125 C-1.94481301 6.14087433 -5.73724131 5.21793105 -10 4 C-10 3.01 -10 2.02 -10 1 C-6.61981469 -0.04005702 -3.5219721 -0.08004482 0 0 Z " fill="#F38334" transform="translate(364,52)"/>
<path d="M0 0 C0.99 0.33 1.98 0.66 3 1 C3 1.99 3 2.98 3 4 C3.99 4.66 4.98 5.32 6 6 C5.67 7.98 5.34 9.96 5 12 C4.443125 12.103125 3.88625 12.20625 3.3125 12.3125 C0.56458956 13.12944635 -1.55594668 14.52070457 -4 16 C-4.66 16 -5.32 16 -6 16 C-6 19.3 -6 22.6 -6 26 C-6.33 26 -6.66 26 -7 26 C-7.67132499 8.52068645 -7.67132499 8.52068645 -4 3 C-1.890625 2.26953125 -1.890625 2.26953125 0 2 C0 1.34 0 0.68 0 0 Z M0 4 C0 7 0 7 0 7 Z " fill="#F0106A" transform="translate(164,40)"/>
<path d="M0 0 C0.12117187 0.92683594 0.24234375 1.85367188 0.3671875 2.80859375 C0.53476563 4.00613281 0.70234375 5.20367187 0.875 6.4375 C1.03742188 7.63246094 1.19984375 8.82742187 1.3671875 10.05859375 C1.57601562 11.02925781 1.78484375 11.99992187 2 13 C2.66 13.33 3.32 13.66 4 14 C4.33 13.01 4.66 12.02 5 11 C5.66 11 6.32 11 7 11 C9.875 17.625 9.875 17.625 11 21 C11.66 21 12.32 21 13 21 C13 21.66 13 22.32 13 23 C12.01 22.67 11.02 22.34 10 22 C10 21.34 10 20.68 10 20 C8.02 20.66 6.04 21.32 4 22 C4 21.34 4 20.68 4 20 C3.36578125 19.80664062 2.7315625 19.61328125 2.078125 19.4140625 C0 18 0 18 -0.828125 14.9609375 C-1.03695312 13.18589844 -1.03695312 13.18589844 -1.25 11.375 C-1.39953125 10.18648437 -1.5490625 8.99796875 -1.703125 7.7734375 C-1.80109375 6.85820313 -1.8990625 5.94296875 -2 5 C-3.65 6.65 -5.3 8.3 -7 10 C-7.66 9.67 -8.32 9.34 -9 9 C-8.875 6.75 -8.875 6.75 -8 4 C-2.91891892 0 -2.91891892 0 0 0 Z " fill="#D00B6B" transform="translate(168,51)"/>
<path d="M0 0 C3.875 1.75 3.875 1.75 5 4 C7.54941373 4.31241371 10.00361513 4.51303421 12.5625 4.625 C13.27341797 4.66367187 13.98433594 4.70234375 14.71679688 4.7421875 C16.47742425 4.83671783 18.23867728 4.91945817 20 5 C20 6.65 20 8.3 20 10 C14.06 10 8.12 10 2 10 C2 9.34 2 8.68 2 8 C1.01 8 0.02 8 -1 8 C-1.04241723 5.66705225 -1.04092937 3.33297433 -1 1 C-0.67 0.67 -0.34 0.34 0 0 Z " fill="#A41268" transform="translate(391,48)"/>
<path d="M0 0 C3.75657223 0.26208643 5.7453102 0.81322748 8.8125 3.0625 C11.54398872 6.73049914 12.16546221 9.47736631 12 14 C10.99093079 18.03627686 9.1557543 20.32239029 6 23 C2.9489365 24.01702117 0.75800939 24.16582083 -2.4375 24.1875 C-3.85869141 24.20876953 -3.85869141 24.20876953 -5.30859375 24.23046875 C-8 24 -8 24 -12 22 C-6.72 22 -1.44 22 4 22 C4 20.68 4 19.36 4 18 C5.65 18 7.3 18 9 18 C8.505 11.565 8.505 11.565 8 5 C6.02 5 4.04 5 2 5 C2 4.34 2 3.68 2 3 C1.01 2.67 0.02 2.34 -1 2 C-0.67 1.34 -0.34 0.68 0 0 Z " fill="#EEAC79" transform="translate(364,52)"/>
<path d="M0 0 C1.32 0.33 2.64 0.66 4 1 C4.33 2.32 4.66 3.64 5 5 C6.65 5.33 8.3 5.66 10 6 C10 6.99 10 7.98 10 9 C10.804375 9.12375 11.60875 9.2475 12.4375 9.375 C13.283125 9.58125 14.12875 9.7875 15 10 C15.33 10.66 15.66 11.32 16 12 C13 14 13 14 10.125 13.75 C2.76502732 11.98360656 2.76502732 11.98360656 0.6875 9.3125 C-0.2478171 6.16643337 -0.12541365 3.26075491 0 0 Z " fill="#FC1170" transform="translate(185,55)"/>
<path d="M0 0 C2 2 2 2 2.1953125 4.3828125 C2.17210937 5.28773437 2.14890625 6.19265625 2.125 7.125 C2.10695313 8.03507812 2.08890625 8.94515625 2.0703125 9.8828125 C2.04710937 10.58148438 2.02390625 11.28015625 2 12 C1.67 12 1.34 12 1 12 C1 9.03 1 6.06 1 3 C-0.32 3 -1.64 3 -3 3 C-3.66 5.97 -4.32 8.94 -5 12 C-5.66 12 -6.32 12 -7 12 C-6.9690625 10.5459375 -6.9690625 10.5459375 -6.9375 9.0625 C-6.64381501 6.12534105 -6.64381501 6.12534105 -8 5 C-9.68183948 4.76712992 -11.3712416 4.58735834 -13.0625 4.4375 C-13.98160156 4.35371094 -14.90070313 4.26992188 -15.84765625 4.18359375 C-16.91306641 4.09271484 -16.91306641 4.09271484 -18 4 C-18 3.67 -18 3.34 -18 3 C-15.36 2.67 -12.72 2.34 -10 2 C-12.64 1.67 -15.28 1.34 -18 1 C-18 0.34 -18 -0.32 -18 -1 C-15.75135275 -1.22245975 -13.50097377 -1.42746557 -11.25 -1.625 C-9.37054688 -1.79902344 -9.37054688 -1.79902344 -7.453125 -1.9765625 C-4.1200801 -1.99918498 -2.69048167 -1.8481346 0 0 Z " fill="#1D61CC" transform="translate(456,40)"/>
<path d="M0 0 C7.51806849 -0.44032071 13.84224277 0.71387222 21 3 C21 3.33 21 3.66 21 4 C18.69 4 16.38 4 14 4 C14 3.34 14 2.68 14 2 C9.71 2 5.42 2 1 2 C1 4.64 1 7.28 1 10 C3.31 10 5.62 10 8 10 C8 10.33 8 10.66 8 11 C2.06 11.495 2.06 11.495 -4 12 C-4 8.7 -4 5.4 -4 2 C-5.98 2.99 -5.98 2.99 -8 4 C-10.25 3.625 -10.25 3.625 -12 3 C-8.21812119 1.16308743 -6.05431692 0.84162374 -2 2 C-2 3.65 -2 5.3 -2 7 C-1.34 4.69 -0.68 2.38 0 0 Z " fill="#7AE3E0" transform="translate(192,20)"/>
<path d="M0 0 C0.33 0 0.66 0 1 0 C1.0825 1.11375 1.165 2.2275 1.25 3.375 C1.59015529 7.01022611 1.59015529 7.01022611 3.875 8.4375 C6.11698792 9.12794628 6.11698792 9.12794628 9 9 C9 8.34 9 7.68 9 7 C11.31 7.33 13.62 7.66 16 8 C16 8.33 16 8.66 16 9 C13.03 9.66 10.06 10.32 7 11 C9.81484045 13.81484045 12.2166247 13.62757042 16.125 14.125 C18.04699219 14.37636719 18.04699219 14.37636719 20.0078125 14.6328125 C21.48894531 14.81457031 21.48894531 14.81457031 23 15 C23 16.32 23 17.64 23 19 C22.34 19 21.68 19 21 19 C20.67 20.32 20.34 21.64 20 23 C19.98582031 22.39027344 19.97164063 21.78054687 19.95703125 21.15234375 C19.12748226 18.61518571 19.12748226 18.61518571 15.76171875 17.69140625 C13.72729024 17.10128195 11.68303947 16.56132439 9.63476562 16.02148438 C4.94084556 14.65873339 2.47588863 13.25878044 0 9 C-0.390625 6.54296875 -0.390625 6.54296875 -0.25 4.1875 C-0.21390625 3.39730469 -0.1778125 2.60710938 -0.140625 1.79296875 C-0.09421875 1.20128906 -0.0478125 0.60960937 0 0 Z " fill="#EF9C61" transform="translate(347,43)"/>
<path d="M0 0 C2.67006922 1.33503461 2.97461992 2.18804066 4 5 C4.21969026 7.79605787 4.33183514 10.45637492 4.3125 13.25 C4.31121094 14.00982178 4.30992187 14.76964355 4.30859375 15.55249023 C4.2157628 20.95119014 3.48191862 25.13957603 1 30 C-0.35217012 27.29565976 0.58924537 25.91325635 1.453125 23.15234375 C2.46390338 19.17420882 2.68781653 15.08303123 3 11 C0.69 10.67 -1.62 10.34 -4 10 C-4 9.34 -4 8.68 -4 8 C-4.66 8 -5.32 8 -6 8 C-6 7.34 -6 6.68 -6 6 C-6.66 6 -7.32 6 -8 6 C-7.67 4.68 -7.34 3.36 -7 2 C-6.34 2.66 -5.68 3.32 -5 4 C-2.42938689 4.64767793 -2.42938689 4.64767793 0 5 C0 3.35 0 1.7 0 0 Z " fill="#F57135" transform="translate(220,46)"/>
<path d="M0 0 C5.61 0 11.22 0 17 0 C17.33 1.32 17.66 2.64 18 4 C9.75 4 1.5 4 -7 4 C-6.67 3.01 -6.34 2.02 -6 1 C-3.03 1.495 -3.03 1.495 0 2 C0 1.34 0 0.68 0 0 Z " fill="#A11467" transform="translate(396,71)"/>
<path d="M0 0 C-0.33 0.94875 -0.66 1.8975 -1 2.875 C-2.10159191 5.77062452 -2.10159191 5.77062452 -2 8 C-1.1028125 7.6596875 -1.1028125 7.6596875 -0.1875 7.3125 C2 7 2 7 3.8125 8 C5.6500262 11.09478096 4.7064591 13.59615163 4 17 C3.566875 16.38125 3.13375 15.7625 2.6875 15.125 C1.00259517 12.7802755 1.00259517 12.7802755 -2 11 C-2.99 11.33 -3.98 11.66 -5 12 C-5.25 5.375 -5.25 5.375 -3 2 C-3.763125 2.515625 -4.52625 3.03125 -5.3125 3.5625 C-6.199375 4.036875 -7.08625 4.51125 -8 5 C-8.99 4.67 -9.98 4.34 -11 4 C-7.9178096 0.4611888 -4.70112403 -2.35056201 0 0 Z " fill="#F53A62" transform="translate(176,36)"/>
<path d="M0 0 C0.78375 0.04125 1.5675 0.0825 2.375 0.125 C2.375 1.445 2.375 2.765 2.375 4.125 C8.315 4.125 14.255 4.125 20.375 4.125 C20.375 4.455 20.375 4.785 20.375 5.125 C14.435 5.125 8.495 5.125 2.375 5.125 C2.375 7.765 2.375 10.405 2.375 13.125 C2.045 12.465 1.715 11.805 1.375 11.125 C-1.15233235 10.46944881 -1.15233235 10.46944881 -3.625 10.125 C-4.6015625 4.0703125 -4.6015625 4.0703125 -4.625 2.125 C-2.625 0.125 -2.625 0.125 0 0 Z " fill="#B73281" transform="translate(393.625,38.875)"/>
<path d="M0 0 C0.66 0.33 1.32 0.66 2 1 C2.4140625 3.28515625 2.4140625 3.28515625 2.625 6.0625 C2.69976562 6.98160156 2.77453125 7.90070312 2.8515625 8.84765625 C2.90054688 9.55792969 2.94953125 10.26820312 3 11 C2.01 11 1.02 11 0 11 C-2.20142332 13.4390706 -2.20142332 13.4390706 -4 16 C-4.33 14.35 -4.66 12.7 -5 11 C-5.66 11 -6.32 11 -7 11 C-7 7.7 -7 4.4 -7 1 C-6.67 2.32 -6.34 3.64 -6 5 C-2.83884224 3.63016497 -2.0072908 3.0109362 0 0 Z " fill="#AD0567" transform="translate(165,55)"/>
<path d="M0 0 C1.98 0 3.96 0 6 0 C6 0.66 6 1.32 6 2 C7.918125 1.938125 7.918125 1.938125 9.875 1.875 C12.0546875 1.8046875 12.0546875 1.8046875 14 2 C14.66 2.66 15.32 3.32 16 4 C12.7 4 9.4 4 6 4 C6 6.97 6 9.94 6 13 C5.67 13 5.34 13 5 13 C4.67 11.35 4.34 9.7 4 8 C3.01 9.98 2.02 11.96 1 14 C0.67 14 0.34 14 0 14 C0 9.38 0 4.76 0 0 Z " fill="#2161BF" transform="translate(432,39)"/>
<path d="M0 0 C0.66 0.99 1.32 1.98 2 3 C1 6 1 6 -1 7 C-0.67 7.763125 -0.34 8.52625 0 9.3125 C1 12 1 12 1 15 C0.34 15 -0.32 15 -1 15 C-1 14.34 -1 13.68 -1 13 C-2.32 12.67 -3.64 12.34 -5 12 C-5.33 13.98 -5.66 15.96 -6 18 C-7.33333333 16 -8.66666667 14 -10 12 C-13.56769552 11.26393501 -13.56769552 11.26393501 -17 11 C-17 10.67 -17 10.34 -17 10 C-9.375 8.875 -9.375 8.875 -6 10 C-6 8.35 -6 6.7 -6 5 C-3 4 -3 4 0 4 C0 2.68 0 1.36 0 0 Z " fill="#4276C9" transform="translate(455,49)"/>
<path d="M0 0 C1.010625 0.0825 2.02125 0.165 3.0625 0.25 C5.0625 3.25 5.0625 3.25 5 5.8125 C4.0625 8.25 4.0625 8.25 1.5 9.5625 C0.2934375 9.9028125 0.2934375 9.9028125 -0.9375 10.25 C-3 8.5625 -3 8.5625 -4.9375 6.25 C-4.63740579 1.94864973 -4.4297943 0.37700377 0 0 Z " fill="#E28EB0" transform="translate(144.9375,48.75)"/>
<path d="M0 0 C1.32 1.32 2.64 2.64 4 4 C3.34 5.98 2.68 7.96 2 10 C2.66 10.33 3.32 10.66 4 11 C2.68 11.33 1.36 11.66 0 12 C0 13.32 0 14.64 0 16 C-0.66 16 -1.32 16 -2 16 C-2 17.98 -2 19.96 -2 22 C-2.33 21.01 -2.66 20.02 -3 19 C-4.65 19.66 -6.3 20.32 -8 21 C-7 18 -7 18 -5.5625 16.6875 C-2.46140017 13.33831218 -2 9.69675612 -2 5.25 C-2 2 -2 2 0 0 Z " fill="#5FD8E0" transform="translate(274,49)"/>
<path d="M0 0 C0.33 0 0.66 0 1 0 C1.12117187 0.74765625 1.24234375 1.4953125 1.3671875 2.265625 C1.53476563 3.25046875 1.70234375 4.2353125 1.875 5.25 C2.03742188 6.22453125 2.19984375 7.1990625 2.3671875 8.203125 C2.95401158 10.79674252 3.58754245 12.75576189 5 15 C6.32303717 15.3721042 7.65737935 15.70630173 9 16 C9.66 16.99 10.32 17.98 11 19 C12.96361864 19.57748803 12.96361864 19.57748803 15.125 19.6875 C16.40375 19.790625 17.6825 19.89375 19 20 C19 21.32 19 22.64 19 24 C17.37536158 24.05395478 15.75021459 24.09277195 14.125 24.125 C12.76761719 24.15980469 12.76761719 24.15980469 11.3828125 24.1953125 C9 24 9 24 7 22 C10.63 22.33 14.26 22.66 18 23 C18 22.34 18 21.68 18 21 C16.1746875 21.0928125 16.1746875 21.0928125 14.3125 21.1875 C8.75349104 21.15813904 6.23316419 19.17711128 2.25 15.375 C-0.69295692 11.68242198 -1.12341158 7.62793426 -1 3 C-0.67 2.01 -0.34 1.02 0 0 Z " fill="#EF83B6" transform="translate(183,51)"/>
<path d="M0 0 C0.99 0 1.98 0 3 0 C3 0.66 3 1.32 3 2 C3.66 2 4.32 2 5 2 C5 2.66 5 3.32 5 4 C7.31 4.33 9.62 4.66 12 5 C12 8.3 12 11.6 12 15 C11.01 15.495 11.01 15.495 10 16 C9.67 15.01 9.34 14.02 9 13 C8.34 12.67 7.68 12.34 7 12 C7 11.34 7 10.68 7 10 C6.34 9.67 5.68 9.34 5 9 C4.690625 8.34 4.38125 7.68 4.0625 7 C3.1108154 4.65391779 3.1108154 4.65391779 0 4 C0 2.68 0 1.36 0 0 Z " fill="#F95646" transform="translate(211,52)"/>
<path d="M0 0 C0.99 0 1.98 0 3 0 C3.33 0.33 3.66 0.66 4 1 C4 0.67 4 0.34 4 0 C5.98 0 7.96 0 10 0 C10.625 3.375 10.625 3.375 11 7 C9 9 9 9 6.5625 9.375 C4 9 4 9 2.25 7.3125 C0.91817553 4.84862472 0.38370894 2.76270435 0 0 Z " fill="#72136C" transform="translate(160,72)"/>
<path d="M0 0 C2.5 1.1875 2.5 1.1875 5 3 C5.4375 5.5625 5.4375 5.5625 5 8 C3 10 3 10 0.5 10.25 C-2 10 -2 10 -4 8 C-4.375 5.5625 -4.375 5.5625 -4 3 C-2 1.1875 -2 1.1875 0 0 Z " fill="#85E3E3" transform="translate(248,63)"/>
<path d="M0 0 C0.33 0.66 0.66 1.32 1 2 C3.09341518 2.4290258 3.09341518 2.4290258 5.5 2.5625 C9.90394511 2.90394511 9.90394511 2.90394511 11 4 C12.51469448 4.23192865 14.03754562 4.41215238 15.5625 4.5625 C16.38878906 4.64628906 17.21507812 4.73007813 18.06640625 4.81640625 C18.70449219 4.87699219 19.34257812 4.93757813 20 5 C20 5.99 20 6.98 20 8 C12.48439718 8.44427209 7.1249951 8.66032236 1 4 C0.34 3.01 -0.32 2.02 -1 1 C-0.67 0.67 -0.34 0.34 0 0 Z " fill="#F70373" transform="translate(182,72)"/>
<path d="M0 0 C1.32 0 2.64 0 4 0 C4 0.66 4 1.32 4 2 C4.86625 2.185625 4.86625 2.185625 5.75 2.375 C8.02335767 3.00648824 9.9253529 3.88858191 12 5 C11.67 6.65 11.34 8.3 11 10 C9.68 10 8.36 10 7 10 C6.34 9.34 5.68 8.68 5 8 C3.68 8 2.36 8 1 8 C1.33 7.01 1.66 6.02 2 5 C2.66 5 3.32 5 4 5 C4 4.34 4 3.68 4 3 C2.68 3 1.36 3 0 3 C0 2.01 0 1.02 0 0 Z " fill="#11E8E6" transform="translate(208,25)"/>
<path d="M0 0 C3.37462715 0.54723683 5.08235 1.0549 8 3 C7.67 5.64 7.34 8.28 7 11 C6.01 11.33 5.02 11.66 4 12 C4 11.34 4 10.68 4 10 C3.34 10 2.68 10 2 10 C-1.07692308 4.58461538 -1.07692308 4.58461538 -0.6875 1.625 C-0.460625 1.08875 -0.23375 0.5525 0 0 Z " fill="#F72A64" transform="translate(314,52)"/>
<path d="M0 0 C0.33 0.66 0.66 1.32 1 2 C3.11063278 2.76791375 3.11063278 2.76791375 5.625 3.375 C10.27619498 4.67813652 13.92427966 6.43052414 18 9 C17.67 10.32 17.34 11.64 17 13 C14.99538701 12.34733531 12.99620166 11.67795528 11 11 C10.071875 10.71125 9.14375 10.4225 8.1875 10.125 C7.465625 9.75375 6.74375 9.3825 6 9 C5.66666667 7.66666667 5.33333333 6.33333333 5 5 C2.50965614 3.70339566 2.50965614 3.70339566 0 3 C0 2.01 0 1.02 0 0 Z " fill="#F7822A" transform="translate(203,39)"/>
<path d="M0 0 C2.01822917 0.06510417 4.03645833 0.13020833 6.0546875 0.1953125 C5.47645654 4.25756798 4.16351013 7.04293596 1.9921875 10.5078125 C1.44433594 11.39082031 0.89648438 12.27382813 0.33203125 13.18359375 C-0.08949219 13.84746094 -0.51101563 14.51132812 -0.9453125 15.1953125 C-1.2753125 13.8753125 -1.6053125 12.5553125 -1.9453125 11.1953125 C-1.2853125 11.1953125 -0.6253125 11.1953125 0.0546875 11.1953125 C0.0546875 9.8753125 0.0546875 8.5553125 0.0546875 7.1953125 C0.7146875 7.1953125 1.3746875 7.1953125 2.0546875 7.1953125 C2.0546875 5.8753125 2.0546875 4.5553125 2.0546875 3.1953125 C0.7346875 3.1953125 -0.5853125 3.1953125 -1.9453125 3.1953125 C-2.6053125 5.1753125 -3.2653125 7.1553125 -3.9453125 9.1953125 C-4.6053125 8.8653125 -5.2653125 8.5353125 -5.9453125 8.1953125 C-3.55986581 0.35741625 -3.55986581 0.35741625 0 0 Z " fill="#E87A9C" transform="translate(328.9453125,35.8046875)"/>
<path d="M0 0 C3.61445184 3.61445184 4.10633785 9.08485819 5 14 C4.01 14.33 3.02 14.66 2 15 C1.67 16.98 1.34 18.96 1 21 C0.34 21 -0.32 21 -1 21 C-1 21.99 -1 22.98 -1 24 C-1.99 24.33 -2.98 24.66 -4 25 C-3.69201674 23.51988629 -3.378482 22.04092675 -3.0625 20.5625 C-2.80146484 19.32693359 -2.80146484 19.32693359 -2.53515625 18.06640625 C-2 16 -2 16 -1 15 C-0.76346477 12.47403741 -0.57826308 9.96892793 -0.4375 7.4375 C-0.39431641 6.72658203 -0.35113281 6.01566406 -0.30664062 5.28320312 C-0.20028223 3.52238088 -0.09961154 1.7612168 0 0 Z " fill="#35ACC8" transform="translate(224,53)"/>
<path d="M0 0 C3.29240875 2.79854744 5.03562946 6.20673275 7 10 C7 10.99 7 11.98 7 13 C4.03 13 1.06 13 -2 13 C-2.33 11.68 -2.66 10.36 -3 9 C-1.35 8.34 0.3 7.68 2 7 C1.34 6.01 0.68 5.02 0 4 C0 2.68 0 1.36 0 0 Z " fill="#8FDEE6" transform="translate(287,63)"/>
<path d="M0 0 C5.34922767 1.81329752 5.34922767 1.81329752 7.0625 4.9375 C6.977595 7.7393649 5.83025029 8.95011968 4 11 C3.01 10.67 2.02 10.34 1 10 C1.66 9.67 2.32 9.34 3 9 C3 7.02 3 5.04 3 3 C-3.27 3 -9.54 3 -16 3 C-10.61472194 -1.03895855 -6.53385348 -0.64553426 0 0 Z " fill="#ECAE81" transform="translate(367,36)"/>
<path d="M0 0 C0.99 0 1.98 0 3 0 C3 0.99 3 1.98 3 3 C2.01 3.495 2.01 3.495 1 4 C0.3503125 5.2065625 0.3503125 5.2065625 -0.3125 6.4375 C-2.29934078 9.45455451 -3.56892639 10.05645476 -7 11 C-7.99 11 -8.98 11 -10 11 C-7.68113867 6.19664438 -5.6836036 3.6420328 -1 1 C-0.67 0.67 -0.34 0.34 0 0 Z " fill="#13CDDF" transform="translate(156,76)"/>
<path d="M0 0 C1.9453125 -0.29296875 1.9453125 -0.29296875 4.125 -0.1875 C5.40375 -0.125625 6.6825 -0.06375 8 0 C9.0625 1.875 9.0625 1.875 10 4 C9.67 4.66 9.34 5.32 9 6 C9.99 6 10.98 6 12 6 C12 6.99 12 7.98 12 9 C10.68 9 9.36 9 8 9 C7.34 8.01 6.68 7.02 6 6 C4.05167065 4.99831469 4.05167065 4.99831469 1.875 4.3125 C1.15054688 4.06113281 0.42609375 3.80976562 -0.3203125 3.55078125 C-0.87460938 3.36902344 -1.42890625 3.18726563 -2 3 C-1.34 2.01 -0.68 1.02 0 0 Z " fill="#FA4A4D" transform="translate(190,46)"/>
<path d="M0 0 C0 0.66 0 1.32 0 2 C-4.44524601 5.73907658 -8.81874052 5.35660546 -14.3125 5.1875 C-15.14845703 5.17396484 -15.98441406 5.16042969 -16.84570312 5.14648438 C-18.89741498 5.11131217 -20.94879275 5.05751048 -23 5 C-23.33 4.01 -23.66 3.02 -24 2 C-22.74896484 2.03480469 -22.74896484 2.03480469 -21.47265625 2.0703125 C-14.10751182 2.18842478 -7.10481111 0 0 0 Z " fill="#3643AE" transform="translate(210,86)"/>
<path d="M0 0 C0 0.66 0 1.32 0 2 C0.99 2.33 1.98 2.66 3 3 C0.875 4.625 0.875 4.625 -2 6 C-4.6875 5.25 -4.6875 5.25 -8 4 C-11.32320689 3.531662 -14.65396839 3.25128301 -18 3 C-18 2.67 -18 2.34 -18 2 C-17.22914063 1.86722656 -16.45828125 1.73445313 -15.6640625 1.59765625 C-14.66117188 1.42105469 -13.65828125 1.24445313 -12.625 1.0625 C-11.62726563 0.88847656 -10.62953125 0.71445313 -9.6015625 0.53515625 C-3.25375 -0.770625 -3.25375 -0.770625 0 0 Z " fill="#CC076D" transform="translate(212,78)"/>
<path d="M0 0 C3.47987378 3.47987378 3.54324079 8.24068179 4 13 C3.90745637 25.63881544 3.90745637 25.63881544 1 30 C0.90266908 22.90565767 0.89912807 16.01805857 2 9 C1.34 9 0.68 9 0 9 C0 6.03 0 3.06 0 0 Z " fill="#7DDFE4" transform="translate(233,45)"/>
<path d="M0 0 C7.23504766 -0.53592946 13.91479422 0.77387553 19.74609375 5.37890625 C21.125 6.75 21.125 6.75 23 9 C20.525 8.505 20.525 8.505 18 8 C18 7.34 18 6.68 18 6 C14.7 5.34 11.4 4.68 8 4 C8 3.34 8 2.68 8 2 C5.36 2 2.72 2 0 2 C0 1.34 0 0.68 0 0 Z " fill="#C6BE45" transform="translate(192,31)"/>
<path d="M0 0 C2.375 0.25 2.375 0.25 5 1 C6.3125 3.0625 6.3125 3.0625 7 5 C5.25 7.0625 5.25 7.0625 3 9 C0.75 8.75 0.75 8.75 -1 8 C-1.625 5.6875 -1.625 5.6875 -2 3 C-1.34 2.01 -0.68 1.02 0 0 Z " fill="#E2B473" transform="translate(236,25)"/>
<path d="M0 0 C1.32 0 2.64 0 4 0 C4.5497272 5.63470383 2.95047835 8.38987758 0 13 C0.61875 13.2475 1.2375 13.495 1.875 13.75 C4.35068687 15.20628639 4.95125002 16.37812506 6 19 C2.10924546 17.70308182 -0.52462743 16.33223231 -3 13 C-3 10.4375 -3 10.4375 -2 8 C-0.67151309 6.99357052 0.66150329 5.99307821 2 5 C2 3.68 2 2.36 2 1 C1.34 0.67 0.68 0.34 0 0 Z " fill="#8188C1" transform="translate(171,77)"/>
<path d="M0 0 C0.66902344 0.2165625 1.33804688 0.433125 2.02734375 0.65625 C11.12887986 3.29508463 19.62633751 3.29986835 29 3 C22.70741198 7.19505868 14.38624878 6.6661473 7.1875 5.25 C3.85013774 3.94123049 2.40983537 2.57188504 0 0 Z " fill="#7D0E7A" transform="translate(179,83)"/>
<path d="M0 0 C2.97 0 5.94 0 9 0 C7.68 0.99 6.36 1.98 5 3 C5.33 5.31 5.66 7.62 6 10 C6.66 10 7.32 10 8 10 C8 11.32 8 12.64 8 14 C8.66 14 9.32 14 10 14 C10.33 15.98 10.66 17.96 11 20 C7.77181698 17.2300764 5.88088902 13.6505383 3.8125 10 C3.44447266 9.3709375 3.07644531 8.741875 2.69726562 8.09375 C0 3.369782 0 3.369782 0 0 Z " fill="#EE8EAD" transform="translate(301,36)"/>
<path d="M0 0 C0.33 0.66 0.66 1.32 1 2 C1.99 2 2.98 2 4 2 C3.6875 3.875 3.6875 3.875 3 6 C0 8 0 8 -3.1875 7.625 C-4.115625 7.41875 -5.04375 7.2125 -6 7 C-6.33 5.02 -6.66 3.04 -7 1 C-4.69 1.66 -2.38 2.32 0 3 C0 2.01 0 1.02 0 0 Z " fill="#68CFDD" transform="translate(144,93)"/>
<path d="M0 0 C1.32 0.33 2.64 0.66 4 1 C4 3.97 4 6.94 4 10 C2.02 10.66 0.04 11.32 -2 12 C-3.30532548 9.38934904 -2.78282536 8.2445219 -2.125 5.4375 C-1.94195312 4.63183594 -1.75890625 3.82617188 -1.5703125 2.99609375 C-1 1 -1 1 0 0 Z " fill="#2061C4" transform="translate(453,42)"/>
<path d="M0 0 C4.10811428 1.44992269 7.46855666 3.45407573 11 6 C11 6.33 11 6.66 11 7 C9.54536519 7.38909985 8.08608793 7.76088029 6.625 8.125 C5.81289062 8.33382812 5.00078125 8.54265625 4.1640625 8.7578125 C3.44992188 8.83773437 2.73578125 8.91765625 2 9 C1.34 8.34 0.68 7.68 0 7 C0 6.34 0 5.68 0 5 C-0.66 4.34 -1.32 3.68 -2 3 C-1.34 2.01 -0.68 1.02 0 0 Z " fill="#1747BB" transform="translate(175,82)"/>
<path d="M0 0 C4.62 0 9.24 0 14 0 C13.67 1.65 13.34 3.3 13 5 C8.71 5 4.42 5 0 5 C0 3.35 0 1.7 0 0 Z M1 2 C1 2.66 1 3.32 1 4 C3.97 4 6.94 4 10 4 C8.04366025 1.58878141 8.04366025 1.58878141 4.375 1.875 C2.704375 1.936875 2.704375 1.936875 1 2 Z " fill="#ED7C94" transform="translate(190,55)"/>
<path d="M0 0 C3 2 3 2 3.6875 5.125 C3.790625 6.07375 3.89375 7.0225 4 8 C3.360625 8.103125 2.72125 8.20625 2.0625 8.3125 C1.0415625 8.6528125 1.0415625 8.6528125 0 9 C-0.33 9.99 -0.66 10.98 -1 12 C-1.33 10.68 -1.66 9.36 -2 8 C-2.99 8 -3.98 8 -5 8 C-5.33 6.02 -5.66 4.04 -6 2 C-5.01 2.99 -4.02 3.98 -3 5 C-2.01 3.35 -1.02 1.7 0 0 Z " fill="#8F0562" transform="translate(165,64)"/>
<path d="M0 0 C6.07692308 0 6.07692308 0 9 1 C10.3125 3.5625 10.3125 3.5625 11 6 C11.66 6 12.32 6 13 6 C13 6.66 13 7.32 13 8 C12.01 7.67 11.02 7.34 10 7 C10 6.34 10 5.68 10 5 C8.02 5.66 6.04 6.32 4 7 C4 6.34 4 5.68 4 5 C2.68 4.34 1.36 3.68 0 3 C0 2.01 0 1.02 0 0 Z " fill="#C6086F" transform="translate(168,66)"/>
<path d="M0 0 C3.3 0 6.6 0 10 0 C10 1.32 10 2.64 10 4 C8.865625 4.020625 7.73125 4.04125 6.5625 4.0625 C0.85153702 4.71634907 -2.83039958 8.30334037 -7 12 C-7 9 -7 9 -4.625 6.375 C-1.22760318 3.30116478 0.1757952 2.87393993 4.625 2.9375 C5.85089844 2.95103516 5.85089844 2.95103516 7.1015625 2.96484375 C8.04128906 2.98224609 8.04128906 2.98224609 9 3 C9 2.34 9 1.68 9 1 C6.03 1 3.06 1 0 1 C0 0.67 0 0.34 0 0 Z " fill="#F8C3A7" transform="translate(192,39)"/>
<path d="M0 0 C2.475 0.99 2.475 0.99 5 2 C5 1.34 5 0.68 5 0 C5.99 0 6.98 0 8 0 C7.82374165 2.37948772 7.30280227 3.70225849 5.59765625 5.37890625 C4.09350908 6.62115486 2.54870149 7.81376056 1 9 C0.34 8.67 -0.32 8.34 -1 8 C-0.67 5.36 -0.34 2.72 0 0 Z " fill="#37A1D4" transform="translate(216,88)"/>
<path d="M0 0 C2.475 0.99 2.475 0.99 5 2 C5 2.66 5 3.32 5 4 C2.31735111 5.95101738 -0.29484467 7.67600971 -3.3125 9.0625 C-5.35897871 9.95072841 -5.35897871 9.95072841 -6 13 C-6.33 11.68 -6.66 10.36 -7 9 C-6.01 9 -5.02 9 -4 9 C-4 8.01 -4 7.02 -4 6 C-4.66 6 -5.32 6 -6 6 C-6 5.34 -6 4.68 -6 4 C-4.02 4 -2.04 4 0 4 C0 2.68 0 1.36 0 0 Z " fill="#EF8E79" transform="translate(187,37)"/>
<path d="M0 0 C-1.07401108 2.91517292 -1.77810176 4.77810176 -4 7 C-4 5.35 -4 3.7 -4 2 C-5.32 2.33 -6.64 2.66 -8 3 C-8 3.99 -8 4.98 -8 6 C-9.65 6.66 -11.3 7.32 -13 8 C-11.87548273 5.0280615 -10.77706209 2.66559313 -9 0 C-5.66131116 -1.05432279 -3.31481265 -1.10493755 0 0 Z " fill="#A0DEE2" transform="translate(294,37)"/>
<path d="M0 0 C0.66 0.33 1.32 0.66 2 1 C1.67 1.99 1.34 2.98 1 4 C2.32 4 3.64 4 5 4 C5 5.65 5 7.3 5 9 C0.25 8.125 0.25 8.125 -2 7 C-1.67 8.65 -1.34 10.3 -1 12 C-1.66 11.67 -2.32 11.34 -3 11 C-3.36923077 4.6 -3.36923077 4.6 -1.5 1.5625 C-1.005 1.046875 -0.51 0.53125 0 0 Z M2 6 C2 6.66 2 7.32 2 8 C2.66 7.67 3.32 7.34 4 7 C3.34 6.67 2.68 6.34 2 6 Z " fill="#81E4ED" transform="translate(139,87)"/>
<path d="M0 0 C2 3 2 3 3.4375 6.5625 C4.72503431 10.1979753 4.72503431 10.1979753 8 12 C2.25 17 2.25 17 0 17 C0.185625 15.865625 0.37125 14.73125 0.5625 13.5625 C1.16007011 8.92303203 0.69277259 4.60427319 0 0 Z " fill="#52AECA" transform="translate(159,70)"/>
<path d="M0 0 C1.65 0.33 3.3 0.66 5 1 C5.6875 2.8125 5.6875 2.8125 6 5 C4.5625 6.75 4.5625 6.75 3 8 C1.0625 7.1875 1.0625 7.1875 -1 6 C-1.33 5.01 -1.66 4.02 -2 3 C-1.34 2.01 -0.68 1.02 0 0 Z " fill="#7FE0E7" transform="translate(201,3)"/>
<path d="M0 0 C0 3.3 0 6.6 0 10 C-0.33 10 -0.66 10 -1 10 C-1.33 8.02 -1.66 6.04 -2 4 C-4.7175283 4.46586199 -7.02841528 5.012475 -9.5625 6.125 C-12.24749062 7.08884279 -13.37141956 6.97354831 -16 6 C-11.10451788 2.32838841 -6.30549886 0 0 0 Z " fill="#E79F5A" transform="translate(188,22)"/>
<path d="M0 0 C0 1.65 0 3.3 0 5 C0.33 3.35 0.66 1.7 1 0 C1.33 0 1.66 0 2 0 C2 3.3 2 6.6 2 10 C0.68 10 -0.64 10 -2 10 C-2 6.7 -2 3.4 -2 0 C-3.98 0.99 -3.98 0.99 -6 2 C-8.25 1.625 -8.25 1.625 -10 1 C-6.21812119 -0.83691257 -4.05431692 -1.15837626 0 0 Z " fill="#EEE6CB" transform="translate(190,22)"/>
<path d="M0 0 C1.32 0.33 2.64 0.66 4 1 C4 2.65 4 4.3 4 6 C3.01 6.33 2.02 6.66 1 7 C1 7.99 1 8.98 1 10 C-0.32 10.33 -1.64 10.66 -3 11 C-3.33 10.01 -3.66 9.02 -4 8 C-2.69254251 6.31295807 -1.35827971 4.64639965 0 3 C0 2.01 0 1.02 0 0 Z " fill="#61D6E3" transform="translate(286,38)"/>
<path d="M0 0 C2.62895146 3.94342719 3.05927998 7.36359419 4 12 C1.03 12 -1.94 12 -5 12 C-5 10.02 -5 8.04 -5 6 C-4.34 6 -3.68 6 -3 6 C-3 7.32 -3 8.64 -3 10 C-1.68 10 -0.36 10 1 10 C0.67 6.7 0.34 3.4 0 0 Z " fill="#6890CF" transform="translate(456,64)"/>
<path d="M0 0 C1.46484375 1.26953125 2.9296875 2.5390625 4.39453125 3.80859375 C6.10712971 5.20871231 6.10712971 5.20871231 9 6 C8.67 6.99 8.34 7.98 8 9 C6.68 9 5.36 9 4 9 C4 8.01 4 7.02 4 6 C2.68 6.33 1.36 6.66 0 7 C-0.66 5.35 -1.32 3.7 -2 2 C-1.34 1.34 -0.68 0.68 0 0 Z " fill="#EF8338" transform="translate(350,64)"/>
<path d="M0 0 C4.62 0 9.24 0 14 0 C14 0.66 14 1.32 14 2 C11.29816945 3.35091528 8.88191794 3.33858058 5.875 3.5625 C4.77929688 3.64628906 3.68359375 3.73007812 2.5546875 3.81640625 C1.71164062 3.87699219 0.86859375 3.93757813 0 4 C0 2.68 0 1.36 0 0 Z " fill="#A61069" transform="translate(396,39)"/>
<path d="M0 0 C-0.4495045 1.31554985 -0.90989716 2.62738358 -1.375 3.9375 C-1.63023437 4.66839844 -1.88546875 5.39929687 -2.1484375 6.15234375 C-3 8 -3 8 -5 9 C-4.125 4.25 -4.125 4.25 -3 2 C-3.763125 2.515625 -4.52625 3.03125 -5.3125 3.5625 C-6.199375 4.036875 -7.08625 4.51125 -8 5 C-8.99 4.67 -9.98 4.34 -11 4 C-7.9178096 0.4611888 -4.70112403 -2.35056201 0 0 Z " fill="#F72E5A" transform="translate(176,36)"/>
<path d="M0 0 C2.64 0 5.28 0 8 0 C8 0.66 8 1.32 8 2 C9.11955078 2.12181641 9.11955078 2.12181641 10.26171875 2.24609375 C13.60985795 3.16790668 14.65095749 4.39235925 16.8125 7.0625 C17.41707031 7.79597656 18.02164063 8.52945313 18.64453125 9.28515625 C19.09183594 9.85105469 19.53914063 10.41695312 20 11 C19.67 11.66 19.34 12.32 19 13 C18.5875 12.54109375 18.175 12.0821875 17.75 11.609375 C13.54356585 7.14003872 9.59717522 4.43505974 4 2 C2.66341702 1.33987263 1.32918173 0.67490602 0 0 Z " fill="#54D6A5" transform="translate(200,31)"/>
<path d="M0 0 C2.67006922 1.33503461 2.97461992 2.18804066 4 5 C4.21969026 7.79605787 4.33183514 10.45637492 4.3125 13.25 C4.31121094 14.00982178 4.30992187 14.76964355 4.30859375 15.55249023 C4.2157628 20.95119014 3.48191862 25.13957603 1 30 C0.67 29.34 0.34 28.68 0 28 C0.309375 27.071875 0.61875 26.14375 0.9375 25.1875 C3.29514109 17.55323361 2.6792938 9.41058641 0 2 C0 1.34 0 0.68 0 0 Z " fill="#AD5C76" transform="translate(220,46)"/>
<path d="M0 0 C0.33 0.99 0.66 1.98 1 3 C0.38511719 2.90460937 -0.22976563 2.80921875 -0.86328125 2.7109375 C-1.67152344 2.60007813 -2.47976563 2.48921875 -3.3125 2.375 C-4.11300781 2.25898437 -4.91351563 2.14296875 -5.73828125 2.0234375 C-8.28723215 1.78466593 -8.28723215 1.78466593 -11 4 C-11 5.32 -11 6.64 -11 8 C-11.66 8 -12.32 8 -13 8 C-13 5.36 -13 2.72 -13 0 C-8.38926889 -1.29676812 -4.66159911 -0.71109139 0 0 Z " fill="#EDAD80" transform="translate(367,42)"/>
<path d="M0 0 C5.40489519 1.52012677 8.98492628 5.27385218 13 9 C12.360625 9.12375 11.72125 9.2475 11.0625 9.375 C10.381875 9.58125 9.70125 9.7875 9 10 C8.67 10.66 8.34 11.32 8 12 C7.34 12 6.68 12 6 12 C6.12375 11.113125 6.2475 10.22625 6.375 9.3125 C5.95887455 5.6367252 5.71076165 5.36374527 3 3.1875 C2.01 2.465625 1.02 1.74375 0 1 C0 0.67 0 0.34 0 0 Z " fill="#3CE2DF" transform="translate(213,24)"/>
<path d="M0 0 C3.375 -0.1875 3.375 -0.1875 7 0 C7.66 0.99 8.32 1.98 9 3 C11.05003955 4.19232613 11.05003955 4.19232613 13 5 C7.55106131 6.19876651 4.77830905 5.91360308 0 3 C0 2.01 0 1.02 0 0 Z " fill="#FA1F69" transform="translate(195,61)"/>
<path d="M0 0 C4.29 0.33 8.58 0.66 13 1 C13 2.32 13 3.64 13 5 C12.34 5 11.68 5 11 5 C10.67 6.32 10.34 7.64 10 9 C9.92910156 8.38640625 9.85820312 7.7728125 9.78515625 7.140625 C9.1849879 4.81931552 9.1849879 4.81931552 6.93359375 3.734375 C6.10988281 3.40953125 5.28617187 3.0846875 4.4375 2.75 C3.61121094 2.41484375 2.78492188 2.0796875 1.93359375 1.734375 C1.29550781 1.49203125 0.65742188 1.2496875 0 1 C0 0.67 0 0.34 0 0 Z " fill="#EB975C" transform="translate(357,57)"/>
<path d="M0 0 C4.29 0 8.58 0 13 0 C13 0.33 13 0.66 13 1 C9.7 1 6.4 1 3 1 C3 2.98 3 4.96 3 7 C4.32 7.33 5.64 7.66 7 8 C4.69 8 2.38 8 0 8 C0 5.36 0 2.72 0 0 Z " fill="#26DCDC" transform="translate(193,22)"/>
<path d="M0 0 C2.97 0.495 2.97 0.495 6 1 C5.67 3.97 5.34 6.94 5 10 C4.01 9.01 3.02 8.02 2 7 C2 5.68 2 4.36 2 3 C1.01 3.33 0.02 3.66 -1 4 C-0.67 2.68 -0.34 1.36 0 0 Z " fill="#F20B75" transform="translate(173,59)"/>
<path d="M0 0 C0.96661363 3.12180401 0.98988909 5.52083795 0.5625 8.75 C0.40974609 9.94882812 0.40974609 9.94882812 0.25390625 11.171875 C0.12822266 12.07679687 0.12822266 12.07679687 0 13 C-0.66 13 -1.32 13 -2 13 C-2 16.3 -2 19.6 -2 23 C-2.33 23 -2.66 23 -3 23 C-3.32098157 14.64259099 -3.21819111 7.77729519 0 0 Z " fill="#E586B3" transform="translate(160,43)"/>
<path d="M0 0 C0.93169281 2.79507842 1.2892205 5.08501871 1.5625 8 C1.64628906 8.86625 1.73007813 9.7325 1.81640625 10.625 C2 13 2 13 2 16 C1.01 16 0.02 16 -1 16 C-0.67 17.65 -0.34 19.3 0 21 C-2 19 -2 19 -2.01171875 15.15625 C-1.91450221 13.60344886 -1.80595099 12.05132582 -1.6875 10.5 C-1.63916016 9.71496094 -1.59082031 8.92992187 -1.54101562 8.12109375 C-1.1460891 2.2921782 -1.1460891 2.2921782 0 0 Z " fill="#EF5D9F" transform="translate(180,51)"/>
<path d="M0 0 C2.85984547 2.51632049 4.41468822 5.33885553 6.1875 8.6875 C6.71730469 9.68136719 7.24710937 10.67523438 7.79296875 11.69921875 C8.19128906 12.45847656 8.58960938 13.21773437 9 14 C7.68 14 6.36 14 5 14 C5 13.01 5 12.02 5 11 C4.34 11 3.68 11 3 11 C3 9.35 3 7.7 3 6 C2.34 6 1.68 6 1 6 C0.67 4.02 0.34 2.04 0 0 Z " fill="#EC7396" transform="translate(310,38)"/>
<path d="M0 0 C0.66 0.66 1.32 1.32 2 2 C5.08347826 2.16681109 5.08347826 2.16681109 8 2 C8 2.99 8 3.98 8 5 C6.02 5 4.04 5 2 5 C2 5.66 2 6.32 2 7 C0.68 6.34 -0.64 5.68 -2 5 C-1.125 1.125 -1.125 1.125 0 0 Z " fill="#F86241" transform="translate(179,36)"/>
<path d="M0 0 C0.33 0 0.66 0 1 0 C1.41081122 3.3549583 1.60143047 5.95584988 -0.125 8.953125 C-3.28828563 12.87428114 -5.94048007 14.91581716 -11 16 C-8.51851494 12.88041879 -6.48341917 10.35157757 -3.25 8 C-0.4017929 5.46826035 -0.25378785 3.72222184 0 0 Z " fill="#92D8E3" transform="translate(158,66)"/>
<path d="M0 0 C2.475 0.99 2.475 0.99 5 2 C5 2.66 5 3.32 5 4 C5.66 4 6.32 4 7 4 C6.67 5.32 6.34 6.64 6 8 C3.03 7.505 3.03 7.505 0 7 C0 4.69 0 2.38 0 0 Z " fill="#1E62C1" transform="translate(449,60)"/>
<path d="M0 0 C1.98 0.66 3.96 1.32 6 2 C6.33 3.98 6.66 5.96 7 8 C3 8 3 8 1.25 6.8125 C-0.38540232 4.44116664 -0.22858693 2.81923877 0 0 Z " fill="#FA4355" transform="translate(204,53)"/>
<path d="M0 0 C2.05078125 0.03255208 4.1015625 0.06510417 6.15234375 0.09765625 C6.15234375 0.75765625 6.15234375 1.41765625 6.15234375 2.09765625 C10.77234375 2.09765625 15.39234375 2.09765625 20.15234375 2.09765625 C20.15234375 2.42765625 20.15234375 2.75765625 20.15234375 3.09765625 C17.06909017 3.15588155 13.9859787 3.19132759 10.90234375 3.22265625 C9.59330078 3.24779297 9.59330078 3.24779297 8.2578125 3.2734375 C7.41347656 3.27988281 6.56914062 3.28632812 5.69921875 3.29296875 C4.92416992 3.30344238 4.14912109 3.31391602 3.35058594 3.32470703 C0.89350836 3.07092181 -0.72077167 2.32209777 -2.84765625 1.09765625 C-1.84765625 0.09765625 -1.84765625 0.09765625 0 0 Z " fill="#1356B6" transform="translate(185.84765625,96.90234375)"/>
<path d="M0 0 C0.33 0.66 0.66 1.32 1 2 C3.02463255 2.65213292 3.02463255 2.65213292 5 3 C5 3.66 5 4.32 5 5 C12.425 5.99 12.425 5.99 20 7 C20 7.33 20 7.66 20 8 C12.48439718 8.44427209 7.1249951 8.66032236 1 4 C0.34 3.01 -0.32 2.02 -1 1 C-0.67 0.67 -0.34 0.34 0 0 Z " fill="#E30676" transform="translate(182,72)"/>
<path d="M0 0 C1.25541557 3.76624671 0.37061958 5.37188934 -1 9 C-1.66 9 -2.32 9 -3 9 C-2.9690625 7.5459375 -2.9690625 7.5459375 -2.9375 6.0625 C-2.64381501 3.12534105 -2.64381501 3.12534105 -4 2 C-5.68183948 1.76712992 -7.3712416 1.58735834 -9.0625 1.4375 C-10.44115234 1.31181641 -10.44115234 1.31181641 -11.84765625 1.18359375 C-12.91306641 1.09271484 -12.91306641 1.09271484 -14 1 C-14 0.67 -14 0.34 -14 0 C-12.2300132 -0.19532961 -10.45895721 -0.38098882 -8.6875 -0.5625 C-7.70136719 -0.66691406 -6.71523438 -0.77132812 -5.69921875 -0.87890625 C-3 -1 -3 -1 0 0 Z " fill="#7EA5DE" transform="translate(452,43)"/>
<path d="M0 0 C0.33 0 0.66 0 1 0 C1.18175781 0.84884766 1.18175781 0.84884766 1.3671875 1.71484375 C1.53476563 2.44832031 1.70234375 3.18179688 1.875 3.9375 C2.03742188 4.66839844 2.19984375 5.39929687 2.3671875 6.15234375 C2.82961523 8.20700294 2.82961523 8.20700294 5 9 C5.33 8.01 5.66 7.02 6 6 C6.66 6 7.32 6 8 6 C8 7.32 8 8.64 8 10 C7.01 10.33 6.02 10.66 5 11 C4.34 11.66 3.68 12.32 3 13 C3 12.01 3 11.02 3 10 C2.34 10 1.68 10 1 10 C-0.60725635 6.78548731 -0.05748185 3.56387464 0 0 Z " fill="#DA1173" transform="translate(167,56)"/>
<path d="M0 0 C0.66 0.33 1.32 0.66 2 1 C1.38125 1.556875 0.7625 2.11375 0.125 2.6875 C-2.10924749 4.84444358 -2.10924749 4.84444358 -3 7.5 C-4.16076393 10.40190983 -5.69740891 11.92766802 -8 14 C-8.33 13.34 -8.66 12.68 -9 12 C-8.06692579 10.55962331 -7.12834923 9.12281015 -6.1875 7.6875 C-5.66542969 6.88699219 -5.14335937 6.08648437 -4.60546875 5.26171875 C-3.19610151 3.2762598 -1.77903343 1.6508148 0 0 Z " fill="#EB92A8" transform="translate(170,29)"/>
<path d="M0 0 C-0.66 1.65 -1.32 3.3 -2 5 C-3.32 5 -4.64 5 -6 5 C-6 4.34 -6 3.68 -6 3 C-6.66 3 -7.32 3 -8 3 C-8 2.34 -8 1.68 -8 1 C-5.29120665 -0.35439668 -2.99066732 -0.06501451 0 0 Z " fill="#0451CB" transform="translate(186,89)"/>
<path d="M0 0 C1.32 0 2.64 0 4 0 C4 1.32 4 2.64 4 4 C3.34 4 2.68 4 2 4 C2 4.99 2 5.98 2 7 C0.68 7 -0.64 7 -2 7 C-1.125 2.25 -1.125 2.25 0 0 Z " fill="#F72A65" transform="translate(327,39)"/>
<path d="M0 0 C3.3 0 6.6 0 10 0 C10 1.32 10 2.64 10 4 C6.7 3.34 3.4 2.68 0 2 C0 1.34 0 0.68 0 0 Z " fill="#1C62CA" transform="translate(439,55)"/>
<path d="M0 0 C3.82669043 3.42388092 5.72278474 6.00724943 7 11 C5.125 10.8125 5.125 10.8125 3 10 C1.31157047 6.80087037 0.60840923 3.54905382 0 0 Z " fill="#61E4E4" transform="translate(226,34)"/>
<path d="M0 0 C2.64 0 5.28 0 8 0 C7.67 2.31 7.34 4.62 7 7 C6.01 6.67 5.02 6.34 4 6 C3.65657551 4.66923011 3.32380126 3.33568021 3 2 C2.01 1.34 1.02 0.68 0 0 Z " fill="#E63468" transform="translate(302,37)"/>
<path d="M0 0 C0.33 0 0.66 0 1 0 C1 1.65 1 3.3 1 5 C1.99 5 2.98 5 4 5 C4.66 3.35 5.32 1.7 6 0 C6.66 0 7.32 0 8 0 C8 1.32 8 2.64 8 4 C2.88888889 8 2.88888889 8 0 8 C0 5.36 0 2.72 0 0 Z " fill="#DF116B" transform="translate(160,47)"/>
<path d="M0 0 C1.32 0.66 2.64 1.32 4 2 C3.67 3.32 3.34 4.64 3 6 C1.35 5.67 -0.3 5.34 -2 5 C-1.125 1.125 -1.125 1.125 0 0 Z " fill="#87DDE5" transform="translate(237,87)"/>
<path d="M0 0 C0 3.63195496 -0.95453155 4.74713911 -3 7.6875 C-3.556875 8.49574219 -4.11375 9.30398437 -4.6875 10.13671875 C-5.120625 10.75160156 -5.55375 11.36648437 -6 12 C-6.66 11.01 -7.32 10.02 -8 9 C-7.34 9 -6.68 9 -6 9 C-5.9071875 8.1646875 -5.9071875 8.1646875 -5.8125 7.3125 C-4.66626128 4.05012827 -2.50609803 2.31332126 0 0 Z " fill="#1F86CD" transform="translate(219,78)"/>
<path d="M0 0 C1.65 0 3.3 0 5 0 C3.64978174 4.41889613 1.73884332 6.34345343 -2 9 C-2.33 7.68 -2.66 6.36 -3 5 C-1.68 5 -0.36 5 1 5 C0.67 3.35 0.34 1.7 0 0 Z " fill="#50C1DD" transform="translate(226,81)"/>
<path d="M0 0 C0.99 0.33 1.98 0.66 3 1 C3 1.66 3 2.32 3 3 C3.66 3.33 4.32 3.66 5 4 C3 6 3 6 0.375 6.125 C-0.40875 6.08375 -1.1925 6.0425 -2 6 C-2.33 5.01 -2.66 4.02 -3 3 C-2.01 3 -1.02 3 0 3 C0 2.01 0 1.02 0 0 Z " fill="#7A2E76" transform="translate(166,75)"/>
<path d="M0 0 C1.65 0.33 3.3 0.66 5 1 C5 2.32 5 3.64 5 5 C3.02 5 1.04 5 -1 5 C-0.67 3.35 -0.34 1.7 0 0 Z " fill="#1FD3DD" transform="translate(246,66)"/>
<path d="M0 0 C0.99 0 1.98 0 3 0 C3 0.99 3 1.98 3 3 C2.34 3 1.68 3 1 3 C1 4.98 1 6.96 1 9 C0.67 8.01 0.34 7.02 0 6 C-1.65 6.66 -3.3 7.32 -5 8 C-3.98379995 4.95139986 -3.22608429 4.13333078 -1 2 C-0.67 1.34 -0.34 0.68 0 0 Z " fill="#67D6E7" transform="translate(271,62)"/>
<path d="M0 0 C1.32 0.33 2.64 0.66 4 1 C4.33 2.65 4.66 4.3 5 6 C4.34 6 3.68 6 3 6 C2.67 6.99 2.34 7.98 2 9 C0 7 0 7 -0.125 3.375 C-0.08375 2.26125 -0.0425 1.1475 0 0 Z " fill="#F5196D" transform="translate(185,55)"/>
<path d="M0 0 C1.65 1.32 3.3 2.64 5 4 C4.67 5.32 4.34 6.64 4 8 C3.21625 7.525625 2.4325 7.05125 1.625 6.5625 C0.11051322 5.66101977 -1.4235897 4.78820515 -3 4 C-3 3.34 -3 2.68 -3 2 C-2.01 2 -1.02 2 0 2 C0 1.34 0 0.68 0 0 Z " fill="#DCA334" transform="translate(215,40)"/>
<path d="M0 0 C0.33 0.66 0.66 1.32 1 2 C-0.32 2.99 -1.64 3.98 -3 5 C-2.01 5.33 -1.02 5.66 0 6 C0 6.66 0 7.32 0 8 C-2.31 8.33 -4.62 8.66 -7 9 C-6.82374165 6.62051228 -6.30280227 5.29774151 -4.59765625 3.62109375 C-3.09350908 2.37884514 -1.54870149 1.18623944 0 0 Z " fill="#E85654" transform="translate(174,28)"/>
<path d="M0 0 C0.33 1.32 0.66 2.64 1 4 C2.65 4 4.3 4 6 4 C4.7260411 6.03833424 3.38938077 8.03852126 2 10 C1.34 10 0.68 10 0 10 C0 6.7 0 3.4 0 0 Z " fill="#B7186D" transform="translate(158,56)"/>
<path d="M0 0 C0 2.64 0 5.28 0 8 C-1.33333333 6 -2.66666667 4 -4 2 C-7.56769552 1.26393501 -7.56769552 1.26393501 -11 1 C-11 0.67 -11 0.34 -11 0 C-6.98195309 -0.84098656 -3.98196457 -1.05404945 0 0 Z " fill="#6792D8" transform="translate(449,59)"/>
<path d="M0 0 C1.20628008 2.33214148 2.1654738 4.49642139 3 7 C1.35 7.66 -0.3 8.32 -2 9 C-2.6875 7.3125 -2.6875 7.3125 -3 5 C-1.5625 2.25 -1.5625 2.25 0 0 Z " fill="#62D5DF" transform="translate(286,63)"/>
<path d="M0 0 C1.67542976 0.28604898 3.34385343 0.61781233 5 1 C5 2.32 5 3.64 5 5 C4.01 5 3.02 5 2 5 C2 4.34 2 3.68 2 3 C-0.31 3 -2.62 3 -5 3 C-4.360625 2.690625 -3.72125 2.38125 -3.0625 2.0625 C-1.06389179 1.1654837 -1.06389179 1.1654837 0 0 Z " fill="#F48728" transform="translate(182,25)"/>
<path d="M0 0 C2.31 0.66 4.62 1.32 7 2 C7 2.99 7 3.98 7 5 C5.02 5 3.04 5 1 5 C0.67 3.35 0.34 1.7 0 0 Z " fill="#24BDCB" transform="translate(137,94)"/>
<path d="M0 0 C1.65 0 3.3 0 5 0 C5 1.65 5 3.3 5 5 C3.35 5 1.7 5 0 5 C0 3.35 0 1.7 0 0 Z " fill="#E21B66" transform="translate(142,51)"/>
<path d="M0 0 C2.46800047 1.15173355 4.04783565 2.04783565 6 4 C6.1953125 6.3828125 6.1953125 6.3828125 6.125 9.125 C6.10695313 10.03507812 6.08890625 10.94515625 6.0703125 11.8828125 C6.04710937 12.58148438 6.02390625 13.28015625 6 14 C5.67 14 5.34 14 5 14 C5 11.03 5 8.06 5 5 C3.68 4.67 2.36 4.34 1 4 C0.67 2.68 0.34 1.36 0 0 Z " fill="#5F8BCD" transform="translate(452,38)"/>
<path d="M0 0 C2.97 0.495 2.97 0.495 6 1 C6.33 2.65 6.66 4.3 7 6 C6.01 5.67 5.02 5.34 4 5 C4 4.34 4 3.68 4 3 C2.35 2.67 0.7 2.34 -1 2 C-0.67 1.34 -0.34 0.68 0 0 Z " fill="#F48133" transform="translate(363,39)"/>
<path d="M0 0 C1.17219543 0.78345715 2.33763668 1.57702836 3.5 2.375 C4.47453125 3.03628906 4.47453125 3.03628906 5.46875 3.7109375 C5.9740625 4.13632813 6.479375 4.56171875 7 5 C7 5.66 7 6.32 7 7 C7.66 7.33 8.32 7.66 9 8 C6.1875 7.8125 6.1875 7.8125 3 7 C1.14766715 4.59196729 0 3.07258075 0 0 Z " fill="#ED5CA3" transform="translate(183,67)"/>
<path d="M0 0 C0.99 0.33 1.98 0.66 3 1 C3 6.94 3 12.88 3 19 C2.67 19 2.34 19 2 19 C1.93941406 17.96359375 1.87882812 16.9271875 1.81640625 15.859375 C1.73196629 14.48957127 1.64732003 13.11978025 1.5625 11.75 C1.52318359 11.06808594 1.48386719 10.38617188 1.44335938 9.68359375 C1.23333528 6.35551959 0.98065998 3.19744598 0 0 Z " fill="#F17198" transform="translate(312,56)"/>
<path d="M0 0 C2.0625 0.4375 2.0625 0.4375 4 1 C1.375 5.875 1.375 5.875 -2 7 C-1.125 1.125 -1.125 1.125 0 0 Z " fill="#7ADCDF" transform="translate(268,61)"/>
<path d="M0 0 C0.33 0.99 0.66 1.98 1 3 C2.32 3 3.64 3 5 3 C5 4.65 5 6.3 5 8 C4.01 8.495 4.01 8.495 3 9 C2.67 8.01 2.34 7.02 2 6 C1.34 5.67 0.68 5.34 0 5 C0 4.34 0 3.68 0 3 C-0.66 2.67 -1.32 2.34 -2 2 C-1.34 1.34 -0.68 0.68 0 0 Z " fill="#F54250" transform="translate(218,59)"/>
<path d="M0 0 C1.32 0 2.64 0 4 0 C4 1.65 4 3.3 4 5 C2.35 5 0.7 5 -1 5 C-0.67 3.35 -0.34 1.7 0 0 Z " fill="#DCA194" transform="translate(153,31)"/>
<path d="M0 0 C3.39536357 0.60631492 5.30660868 1.89578803 8 4 C9.31836295 4.69580267 10.64791086 5.37224433 12 6 C5.6 6.49230769 5.6 6.49230769 2.5625 4 C2.046875 3.34 1.53125 2.68 1 2 C0.01 2.495 0.01 2.495 -1 3 C-0.67 2.01 -0.34 1.02 0 0 Z " fill="#F6CCA8" transform="translate(349,63)"/>
<path d="M0 0 C3.09902323 3.09902323 2.9898579 5.39147385 3.0625 9.75 C3.041875 10.8225 3.02125 11.895 3 13 C2.67 11.68 2.34 10.36 2 9 C1.34 9 0.68 9 0 9 C0 6.03 0 3.06 0 0 Z " fill="#72E3E6" transform="translate(233,45)"/>
<path d="M0 0 C1.31157516 2.62315032 0.89649988 4.23033436 0.5625 7.125 C0.46066406 8.03507812 0.35882813 8.94515625 0.25390625 9.8828125 C0.12822266 10.93082031 0.12822266 10.93082031 0 12 C-0.66 11.67 -1.32 11.34 -2 11 C-2.05399736 9.54207116 -2.09279177 8.08357288 -2.125 6.625 C-2.15980469 5.40683594 -2.15980469 5.40683594 -2.1953125 4.1640625 C-2 2 -2 2 0 0 Z " fill="#EC9051" transform="translate(350,39)"/>
<path d="M0 0 C1.32 0 2.64 0 4 0 C4 0.66 4 1.32 4 2 C5.98 2 7.96 2 10 2 C9.01 2.33 8.02 2.66 7 3 C7 3.66 7 4.32 7 5 C1.25 3.25 1.25 3.25 -1 1 C-0.67 0.67 -0.34 0.34 0 0 Z " fill="#FA9121" transform="translate(205,39)"/>
<path d="M0 0 C1.65 0.33 3.3 0.66 5 1 C5.33 1.99 5.66 2.98 6 4 C3.36 4 0.72 4 -2 4 C-1.34 2.68 -0.68 1.36 0 0 Z " fill="#F97E2F" transform="translate(184,34)"/>
<path d="M0 0 C3.96 0 7.92 0 12 0 C11.34 1.32 10.68 2.64 10 4 C9.34 3.34 8.68 2.68 8 2 C5.78927023 1.75746187 5.78927023 1.75746187 3.375 1.875 C2.14910156 1.90207031 2.14910156 1.90207031 0.8984375 1.9296875 C-0.04128906 1.96449219 -0.04128906 1.96449219 -1 2 C-0.67 1.34 -0.34 0.68 0 0 Z " fill="#F95542" transform="translate(171,32)"/>
<path d="M0 0 C1.98 0.495 1.98 0.495 4 1 C3.625 2.9375 3.625 2.9375 3 5 C2.01 5.495 2.01 5.495 1 6 C0.34 5.67 -0.32 5.34 -1 5 C-0.67 3.35 -0.34 1.7 0 0 Z " fill="#8EDDE3" transform="translate(221,11)"/>
<path d="M0 0 C0.99 0.33 1.98 0.66 3 1 C3 1.66 3 2.32 3 3 C4.32 2.34 5.64 1.68 7 1 C7.33 1.99 7.66 2.98 8 4 C5.6875 4.6875 5.6875 4.6875 3 5 C1.1875 3.6875 1.1875 3.6875 0 2 C0 1.34 0 0.68 0 0 Z " fill="#B1086C" transform="translate(169,70)"/>
<path d="M0 0 C2.97 0.495 2.97 0.495 6 1 C6 1.99 6 2.98 6 4 C4.68 4.33 3.36 4.66 2 5 C2 4.34 2 3.68 2 3 C1.01 2.67 0.02 2.34 -1 2 C-0.67 1.34 -0.34 0.68 0 0 Z " fill="#EF9C61" transform="translate(364,52)"/>
<path d="M0 0 C0.99 0 1.98 0 3 0 C3 1.32 3 2.64 3 4 C3.66 4 4.32 4 5 4 C5.33 5.98 5.66 7.96 6 10 C3.38275905 7.63202009 1.67138271 5.10399646 0 2 C0 1.34 0 0.68 0 0 Z " fill="#E97B9C" transform="translate(306,46)"/>
<path d="M0 0 C0.99 0.33 1.98 0.66 3 1 C1.02 2.98 -0.96 4.96 -3 7 C-3.66 6.67 -4.32 6.34 -5 6 C-5 4.66666667 -5 3.33333333 -5 2 C-3.35 2 -1.7 2 0 2 C0 1.34 0 0.68 0 0 Z " fill="#6CD2E0" transform="translate(156,87)"/>
<path d="M0 0 C2 4 2 4 2 8 C1.34 8 0.68 8 0 8 C0 8.66 0 9.32 0 10 C-0.66 9.67 -1.32 9.34 -2 9 C-1.34 6.03 -0.68 3.06 0 0 Z " fill="#E9863E" transform="translate(368,62)"/>
<path d="M0 0 C-1.09068668 3.77545388 -1.9083091 6.47043472 -5 9 C-5.75 6.75 -5.75 6.75 -6 4 C-2.86486486 0 -2.86486486 0 0 0 Z " fill="#A30465" transform="translate(166,62)"/>
<path d="M0 0 C4.75 0.875 4.75 0.875 7 2 C7 2.99 7 3.98 7 5 C5.35 4.67 3.7 4.34 2 4 C2 3.34 2 2.68 2 2 C1.34 2 0.68 2 0 2 C0 1.34 0 0.68 0 0 Z " fill="#FB653C" transform="translate(214,52)"/>
<path d="M0 0 C0.66 0 1.32 0 2 0 C1.375 1.875 1.375 1.875 0 4 C-3.125 5.25 -3.125 5.25 -6 6 C-4 4 -2 2 0 0 Z M-7 6 C-7 9 -7 9 -7 9 Z " fill="#FD1D67" transform="translate(171,38)"/>
<path d="M0 0 C3.465 1.485 3.465 1.485 7 3 C7 3.33 7 3.66 7 4 C3.7 4 0.4 4 -3 4 C-2.67 3.34 -2.34 2.68 -2 2 C-1.34 2 -0.68 2 0 2 C0 1.34 0 0.68 0 0 Z " fill="#F4633D" transform="translate(175,28)"/>
<path d="M0 0 C2.3125 0.1875 2.3125 0.1875 5 1 C6.8125 3.5625 6.8125 3.5625 8 6 C4.08597051 4.73058503 2.20927127 3.48832306 0 0 Z " fill="#7197CF" transform="translate(169,90)"/>
<path d="M0 0 C1.32 0.33 2.64 0.66 4 1 C3.19185349 2.33597652 2.37836819 3.668725 1.5625 5 C1.11003906 5.7425 0.65757812 6.485 0.19140625 7.25 C-0.20175781 7.8275 -0.59492188 8.405 -1 9 C-1.33 9 -1.66 9 -2 9 C-2 7.35 -2 5.7 -2 4 C-1.34 4 -0.68 4 0 4 C0 2.68 0 1.36 0 0 Z " fill="#9FE4EC" transform="translate(274,61)"/>
<path d="M0 0 C0.66 0.99 1.32 1.98 2 3 C1.00102287 5.99693138 0.34869747 7.02709413 -2 9 C-2.66 9 -3.32 9 -4 9 C-3.67 7.35 -3.34 5.7 -3 4 C-2.01 4 -1.02 4 0 4 C0 2.68 0 1.36 0 0 Z " fill="#6C9AD2" transform="translate(455,49)"/>
<path d="M0 0 C0.66 1.32 1.32 2.64 2 4 C0 7 0 7 -2.125 7.6875 C-2.74375 7.790625 -3.3625 7.89375 -4 8 C-2.87548273 5.0280615 -1.77706209 2.66559313 0 0 Z " fill="#95E1E9" transform="translate(285,37)"/>
<path d="M0 0 C1.32 0 2.64 0 4 0 C3.67 1.65 3.34 3.3 3 5 C1.68 4.34 0.36 3.68 -1 3 C-0.67 2.01 -0.34 1.02 0 0 Z " fill="#DEC2A4" transform="translate(181,6)"/>
<path d="M0 0 C0.99 0.33 1.98 0.66 3 1 C1.35 2.98 -0.3 4.96 -2 7 C-2.33 5.68 -2.66 4.36 -3 3 C-2.34 3 -1.68 3 -1 3 C-0.67 2.01 -0.34 1.02 0 0 Z " fill="#DA1976" transform="translate(218,73)"/>
<path d="M0 0 C1.32 0 2.64 0 4 0 C4.33 1.98 4.66 3.96 5 6 C4.34 6 3.68 6 3 6 C3 5.34 3 4.68 3 4 C2.01 3.67 1.02 3.34 0 3 C0 2.01 0 1.02 0 0 Z " fill="#730558" transform="translate(166,72)"/>
<path d="M0 0 C0.99 0.33 1.98 0.66 3 1 C2.67 1.99 2.34 2.98 2 4 C0.68 4 -0.64 4 -2 4 C-2.66 5.32 -3.32 6.64 -4 8 C-4.25 5.6875 -4.25 5.6875 -4 3 C-2.1875 1.125 -2.1875 1.125 0 0 Z " fill="#8DE6EB" transform="translate(248,63)"/>
<path d="M0 0 C2.64 0.33 5.28 0.66 8 1 C8.33 1.99 8.66 2.98 9 4 C4.545 3.01 4.545 3.01 0 2 C0 1.34 0 0.68 0 0 Z " fill="#EA9E67" transform="translate(359,41)"/>
<path d="M0 0 C1.98 0.495 1.98 0.495 4 1 C3.34 2.32 2.68 3.64 2 5 C1.01 4.67 0.02 4.34 -1 4 C-0.67 2.68 -0.34 1.36 0 0 Z " fill="#0253BF" transform="translate(172,86)"/>
<path d="M0 0 C2.01136276 2.55991624 3.62845496 5.04590299 5 8 C2.53199953 6.84826645 0.95216435 5.95216435 -1 4 C-0.625 1.875 -0.625 1.875 0 0 Z " fill="#ECAE81" transform="translate(347,66)"/>
<path d="M0 0 C2.61273988 1.30636994 2.97236124 2.28409758 4 5 C4.125 8.25 4.125 8.25 4 11 C0.85041169 7.57653445 0.43820891 4.55737263 0 0 Z " fill="#A59C60" transform="translate(220,46)"/>
<path d="M0 0 C1.32 0.33 2.64 0.66 4 1 C1.03 3.475 1.03 3.475 -2 6 C-2 3 -2 3 0 0 Z " fill="#E8898F" transform="translate(187,45)"/>
<path d="M0 0 C0.99 0.33 1.98 0.66 3 1 C1.71937515 2.7074998 0.38232443 4.37373596 -1 6 C-1.66 6 -2.32 6 -3 6 C-2.67 4.68 -2.34 3.36 -2 2 C-1.34 2 -0.68 2 0 2 C0 1.34 0 0.68 0 0 Z " fill="#EA256A" transform="translate(164,40)"/>
<path d="M0 0 C2.0625 0.4375 2.0625 0.4375 4 1 C4 2.65 4 4.3 4 6 C3.01 6.495 3.01 6.495 2 7 C1.01 5.02 0.02 3.04 -1 1 C-0.67 0.67 -0.34 0.34 0 0 Z " fill="#6BD2DB" transform="translate(286,38)"/>
<path d="M0 0 C2.475 0.99 2.475 0.99 5 2 C4.67 2.66 4.34 3.32 4 4 C1.9375 4.625 1.9375 4.625 0 5 C-0.33 4.01 -0.66 3.02 -1 2 C-0.67 1.34 -0.34 0.68 0 0 Z " fill="#54D9E2" transform="translate(200,4)"/>
<path d="M0 0 C0.33 0 0.66 0 1 0 C1 1.98 1 3.96 1 6 C-0.32 6 -1.64 6 -3 6 C-1.125 1.125 -1.125 1.125 0 0 Z " fill="#A51F6D" transform="translate(395,59)"/>
<path d="M0 0 C0.66 0.33 1.32 0.66 2 1 C2 2.65 2 4.3 2 6 C0.35 5.67 -1.3 5.34 -3 5 C-2.01 3.35 -1.02 1.7 0 0 Z " fill="#BD0666" transform="translate(165,55)"/>
<path d="M0 0 C4.21912747 0.4794463 6.79663178 1.16625119 10 4 C3.47692308 3.38461538 3.47692308 3.38461538 1.0625 1.4375 C0.711875 0.963125 0.36125 0.48875 0 0 Z " fill="#EFBA8A" transform="translate(350,55)"/>
<path d="M0 0 C0 3.57575896 -1.08840607 5.05295935 -3 8 C-3.66 6.68 -4.32 5.36 -5 4 C-4.01 4 -3.02 4 -2 4 C-2 3.01 -2 2.02 -2 1 C-1.34 0.67 -0.68 0.34 0 0 Z " fill="#9CE5EA" transform="translate(289,44)"/>
<path d="M0 0 C0.33 0 0.66 0 1 0 C1.144375 1.051875 1.28875 2.10375 1.4375 3.1875 C1.87526966 6.15460549 2.37804866 9.06794366 3 12 C0.89366282 10.29171079 0.06198392 9.47851584 -0.29296875 6.73828125 C-0.25816406 5.93777344 -0.22335937 5.13726562 -0.1875 4.3125 C-0.16042969 3.50425781 -0.13335937 2.69601563 -0.10546875 1.86328125 C-0.07066406 1.24839844 -0.03585937 0.63351563 0 0 Z " fill="#EDB488" transform="translate(347,43)"/>
<path d="M0 0 C2.31 0.66 4.62 1.32 7 2 C7 2.33 7 2.66 7 3 C2.545 3.495 2.545 3.495 -2 4 C-1.34 2.68 -0.68 1.36 0 0 Z " fill="#F88F24" transform="translate(192,34)"/>
<path d="M0 0 C3.93673644 1.31224548 6.22719294 2.91910327 9 6 C5.32579134 5.69381595 4.21864487 5.24228216 1.6875 2.4375 C1.130625 1.633125 0.57375 0.82875 0 0 Z " fill="#86EBEA" transform="translate(213,24)"/>
<path d="M0 0 C0.99 0 1.98 0 3 0 C3 1.32 3 2.64 3 4 C1.68 3.67 0.36 3.34 -1 3 C-0.67 2.01 -0.34 1.02 0 0 Z " fill="#B8D8D4" transform="translate(243,46)"/>
</svg>
